<svg width="66" height="66" viewBox="0 0 66 66" fill="none" xmlns="http://www.w3.org/2000/svg">
<path d="M18.7975 7.12724C18.5518 6.53077 18.4875 5.87452 18.6127 5.24134C18.7378 4.60816 19.0468 4.02644 19.5006 3.56963C19.9544 3.11282 20.5327 2.80139 21.1624 2.67467C21.7922 2.54796 22.4452 2.61163 23.039 2.85765C23.6328 3.10367 24.1407 3.52102 24.4987 4.05698C24.8567 4.59295 25.0487 5.22352 25.0504 5.86907C25.0521 6.51461 24.8635 7.1462 24.5083 7.68408C24.1532 8.22197 23.6475 8.64203 23.055 8.89124C22.6503 9.04611 22.2205 9.12366 21.7875 9.1199C21.1496 9.11938 20.5259 8.93015 19.9942 8.57581C19.4625 8.22147 19.0463 7.71768 18.7975 7.12724ZM12.2975 15.5226C13.1548 15.5103 13.9725 15.1581 14.5725 14.5426C15.029 14.0865 15.3404 13.5045 15.4674 12.8703C15.5944 12.2361 15.5311 11.5783 15.2857 10.9802C15.0403 10.3822 14.6237 9.87085 14.0889 9.51104C13.554 9.15123 12.9249 8.95916 12.2813 8.95916C11.6376 8.95916 11.0085 9.15123 10.4736 9.51104C9.93876 9.87085 9.52221 10.3822 9.2768 10.9802C9.03138 11.5783 8.96815 12.2361 9.09512 12.8703C9.22209 13.5045 9.53355 14.0865 9.99 14.5426C10.2948 14.8552 10.659 15.103 11.061 15.2713C11.463 15.4397 11.8945 15.5251 12.33 15.5226H12.2975ZM4.725 24.7999C5.11796 24.9561 5.53746 25.0338 5.96 25.0286C6.60347 25.0345 7.23421 24.8483 7.77229 24.4935C8.31037 24.1388 8.73156 23.6315 8.9825 23.0359C9.22815 22.4394 9.29247 21.7832 9.16734 21.15C9.04221 20.5168 8.73324 19.9351 8.27943 19.4783C7.82563 19.0215 7.24734 18.7101 6.61758 18.5833C5.98781 18.4566 5.33482 18.5203 4.74103 18.7663C4.14725 19.0123 3.63929 19.4297 3.28131 19.9657C2.92332 20.5016 2.73135 21.1322 2.72963 21.7777C2.72792 22.4233 2.91653 23.0549 3.27167 23.5928C3.6268 24.1306 4.13253 24.5507 4.725 24.7999ZM33 0.365234H32.675C32.5673 0.349134 32.4577 0.349134 32.35 0.365234H31.83L31.375 0.593901L30.8875 0.985901C30.7382 1.1617 30.6175 1.36016 30.53 1.5739C30.0116 2.13055 29.7314 2.86963 29.75 3.6319C29.7589 4.26654 29.9633 4.8828 30.335 5.3959C30.4231 5.59945 30.5439 5.78707 30.6925 5.95123L31.18 6.34323L31.6025 6.5719H32.09L33 6.89857C38.1423 6.89857 43.1691 8.43126 47.4448 11.3028C51.7205 14.1744 55.053 18.2559 57.0209 23.0311C58.9888 27.8064 59.5036 33.0609 58.5004 38.1303C57.4972 43.1996 55.0209 47.8561 51.3848 51.511C47.7486 55.1658 43.1159 57.6547 38.0723 58.6631C33.0288 59.6715 27.8011 59.1539 23.0502 57.176C18.2994 55.198 14.2387 51.8484 11.3818 47.5508C8.52487 43.2532 7 38.2006 7 33.0319C6.99404 32.6612 6.91679 32.2951 6.7725 31.9539C6.7725 31.9539 6.7725 31.9539 6.7725 31.7906C6.66255 31.5541 6.52034 31.3342 6.35 31.1372L6.09 30.7126C5.97566 30.629 5.85626 30.5526 5.7325 30.4839C5.16943 30.0297 4.47191 29.7768 3.75 29.7652C3.08026 29.7859 2.43323 30.0141 1.8975 30.4186C1.73866 30.5049 1.58656 30.6032 1.4425 30.7126L1.1825 31.1372C1.01216 31.3342 0.869955 31.5541 0.76 31.7906C0.600779 32.1856 0.512741 32.6059 0.5 33.0319C0.5 39.4928 2.40609 45.8085 5.97724 51.1805C9.54838 56.5525 14.6242 60.7395 20.5628 63.212C26.5014 65.6844 33.0361 66.3313 39.3404 65.0709C45.6448 63.8104 51.4358 60.6992 55.981 56.1307C60.5262 51.5622 63.6215 45.7416 64.8755 39.4049C66.1295 33.0681 65.4859 26.5 63.0261 20.5309C60.5662 14.5619 56.4006 9.46002 51.056 5.87056C45.7114 2.2811 39.4279 0.365234 33 0.365234ZM29.9775 34.1426C30.0605 34.3517 30.1697 34.5493 30.3025 34.7306C30.3476 34.8703 30.4134 35.0024 30.4975 35.1226L38.8825 45.1512C39.1876 45.5098 39.5664 45.7977 39.9928 45.995C40.4192 46.1924 40.8831 46.2946 41.3525 46.2946C42.1119 46.2961 42.8478 46.0302 43.4325 45.5432C43.7616 45.269 44.0336 44.9322 44.233 44.5521C44.4324 44.1721 44.5553 43.7562 44.5945 43.3283C44.6337 42.9005 44.5886 42.469 44.4617 42.0587C44.3348 41.6484 44.1287 41.2673 43.855 40.9372L36.25 31.8559V16.6986C36.25 15.8322 35.9076 15.0013 35.2981 14.3887C34.6886 13.7761 33.862 13.4319 33 13.4319C32.138 13.4319 31.3114 13.7761 30.7019 14.3887C30.0924 15.0013 29.75 15.8322 29.75 16.6986V33.0319C29.7348 33.184 29.7348 33.3372 29.75 33.4892C29.8095 33.7124 29.8856 33.9308 29.9775 34.1426Z" fill="#916B6B"/>
</svg>
