<svg width="128" height="128" viewBox="0 0 128 128" fill="none" xmlns="http://www.w3.org/2000/svg">
<path d="M13 20V24.6828C8.21765 27.149 4.40278 31.1508 2.16795 36.0455C-0.0668795 40.9403 -0.59201 46.4441 0.67688 51.6731C1.94577 56.9022 4.93506 61.5532 9.16477 64.8792C13.3945 68.2053 18.6192 70.0135 24 70.0135C29.3808 70.0135 34.6056 68.2053 38.8353 64.8792C43.065 61.5532 46.0543 56.9022 47.3232 51.6731C48.592 46.4441 48.0669 40.9403 45.8321 36.0455C43.5973 31.1508 39.7824 27.149 35 24.6828V20C34.9979 18.7606 34.6123 17.5522 33.8961 16.5406C33.1799 15.529 32.1683 14.7638 31 14.35V2C31 1.46957 30.7893 0.960859 30.4142 0.585786C30.0392 0.210714 29.5305 0 29 0C28.4696 0 27.9609 0.210714 27.5858 0.585786C27.2107 0.960859 27 1.46957 27 2V14H22V2C22 1.46957 21.7893 0.960859 21.4142 0.585786C21.0392 0.210714 20.5305 0 20 0C19.4696 0 18.9609 0.210714 18.5858 0.585786C18.2107 0.960859 18 1.46957 18 2V14C18 14.0305 18.0076 14.0588 18.009 14.0889C16.6105 14.3241 15.3404 15.0466 14.4236 16.1285C13.5068 17.2104 13.0025 18.5819 13 20V20ZM43.899 44H42.25C41.7196 44 41.2109 44.2107 40.8358 44.5858C40.4607 44.9609 40.25 45.4696 40.25 46C40.25 46.5304 40.4607 47.0391 40.8358 47.4142C41.2109 47.7893 41.7196 48 42.25 48H43.899C43.4369 52.5898 41.4026 56.8788 38.1408 60.1407C34.8789 63.4026 30.5898 65.4369 26 65.899V64.25C26 63.7196 25.7893 63.2109 25.4142 62.8358C25.0392 62.4607 24.5305 62.25 24 62.25C23.4696 62.25 22.9609 62.4607 22.5858 62.8358C22.2107 63.2109 22 63.7196 22 64.25V65.899C17.067 65.403 12.494 63.0925 9.16811 59.4157C5.84219 55.7389 4.00041 50.9579 4.00002 46L4.0013 45.9749C4.08359 45.9885 4.16666 45.9969 4.25002 46H5.75002C6.28045 46 6.78916 45.7893 7.16423 45.4142C7.5393 45.0391 7.75002 44.5304 7.75002 44C7.75002 43.4696 7.5393 42.9609 7.16423 42.5858C6.78916 42.2107 6.28045 42 5.75002 42H4.40163C5.25681 37.8199 7.42567 34.0227 10.5916 31.1624C13.7576 28.3022 17.7549 26.5288 22 26.101V27.75C22 28.2804 22.2107 28.7891 22.5858 29.1642C22.9609 29.5393 23.4696 29.75 24 29.75C24.5305 29.75 25.0392 29.5393 25.4142 29.1642C25.7893 28.7891 26 28.2804 26 27.75V26.101C30.5898 26.5631 34.8789 28.5974 38.1408 31.8593C41.4026 35.1212 43.4369 39.4102 43.899 44V44ZM17 20C17 19.4696 17.2107 18.9609 17.5858 18.5858C17.9609 18.2107 18.4696 18 19 18H29C29.5305 18 30.0392 18.2107 30.4142 18.5858C30.7893 18.9609 31 19.4696 31 20V23.0441C26.4372 21.652 21.5629 21.652 17 23.0441V20Z" fill="#EEC3B0"/>
<path d="M18.3501 38.5243C18.1564 38.347 17.9296 38.2096 17.6827 38.12C17.4358 38.0303 17.1737 37.9902 16.9113 38.0018C16.3814 38.0254 15.8825 38.2584 15.5244 38.6498C15.3471 38.8436 15.2098 39.0704 15.1201 39.3172C15.0305 39.5641 14.9903 39.8262 15.002 40.0886C15.0255 40.6185 15.2586 41.1174 15.6499 41.4755L22.2071 47.4755C22.5977 47.8328 23.114 48.0208 23.643 47.9981C24.1719 47.9754 24.6703 47.7439 25.0288 47.3544L31.4717 40.3544C31.8309 39.9641 32.0204 39.447 31.9984 38.917C31.9765 38.387 31.7448 37.8874 31.3545 37.5282C30.9642 37.169 30.4472 36.9795 29.9172 37.0015C29.3872 37.0235 28.8876 37.2551 28.5284 37.6454L23.436 43.1781L18.3501 38.5243Z" fill="#EEC3B0"/>
<path d="M117.784 89.2739C117.951 88.7844 118.022 88.267 117.992 87.7505L115.992 55.7505C115.929 54.7348 115.481 53.7815 114.739 53.0847C113.997 52.3879 113.018 52 112 52H84C82.9823 52 82.0029 52.3879 81.2612 53.0847C80.5195 53.7815 80.0713 54.7348 80.0078 55.7505L78.0078 87.7505C77.978 88.267 78.0488 88.7844 78.2164 89.2739L69.3714 96.9849C68.9408 97.3604 68.5955 97.8238 68.359 98.3438C68.1224 98.8639 68 99.4286 68 100V106C68 107.061 68.4214 108.078 69.1716 108.828C69.9217 109.579 70.9391 110 72 110V124C72 125.061 72.4214 126.078 73.1716 126.828C73.9217 127.579 74.9391 128 76 128H80C81.0609 128 82.0783 127.579 82.8284 126.828C83.5786 126.078 84 125.061 84 124V110H112V124C112 125.061 112.421 126.078 113.172 126.828C113.922 127.579 114.939 128 116 128H120C121.061 128 122.078 127.579 122.828 126.828C123.579 126.078 124 125.061 124 124V110C125.061 110 126.078 109.579 126.828 108.828C127.579 108.078 128 107.061 128 106V100C128 99.4286 127.878 98.8639 127.641 98.3438C127.404 97.8237 127.059 97.3604 126.629 96.9849L117.784 89.2739ZM84 56H112L114 88H82L84 56ZM81.1765 92H114.824L121.706 98H74.2941L81.1765 92ZM80 124H76V110H80V124ZM120 124H116V110H120V124ZM124 106H72V102H124V106Z" fill="#EEC3B0"/>
</svg>
