<svg width="32" height="42" viewBox="0 0 32 42" fill="none" xmlns="http://www.w3.org/2000/svg">
<path d="M30.003 8.60941H24.5192V3.38361C24.5194 3.13646 24.4679 2.89169 24.3675 2.66332C24.2671 2.43495 24.1198 2.22746 23.9341 2.05272L22.3365 0.548897C21.9617 0.197034 21.4539 -0.000391659 20.9246 5.83359e-07H11.0834C10.5541 -0.000391659 10.0462 0.197034 9.67149 0.548897L8.07389 2.05272C7.8882 2.22746 7.74094 2.43495 7.64054 2.66332C7.54014 2.89169 7.48856 3.13646 7.48877 3.38361V8.60941H1.997C1.46737 8.60941 0.959421 8.80746 0.58491 9.15998C0.210399 9.51251 0 9.99064 0 10.4892V40.1202C0 40.6188 0.210399 41.0969 0.58491 41.4494C0.959421 41.802 1.46737 42 1.997 42H30.003C30.5326 42 31.0406 41.802 31.4151 41.4494C31.7896 41.0969 32 40.6188 32 40.1202V10.4892C32 9.99064 31.7896 9.51251 31.4151 9.15998C31.0406 8.80746 30.5326 8.60941 30.003 8.60941ZM11.4748 4.16372L11.9101 3.75393H20.0979L20.5332 4.16372V8.60941H11.4748V4.16372Z" fill="#977171"/>
</svg>
