<svg width="56" height="56" viewBox="0 0 56 56" fill="none" xmlns="http://www.w3.org/2000/svg">
<path d="M23.8854 3.38395C24.1532 4.28329 24.1498 5.24233 23.8759 6.13977C23.6019 7.03721 23.0695 7.83271 22.3462 8.42566C21.6228 9.01861 20.741 9.38235 19.8121 9.47088C18.8833 9.55942 17.9493 9.36876 17.1281 8.92303C16.307 8.4773 15.6357 7.79652 15.1991 6.96681C14.7626 6.1371 14.5803 5.19574 14.6755 4.26181C14.7707 3.32787 15.139 2.44333 15.7339 1.72007C16.3287 0.996806 17.1234 0.46732 18.0173 0.19859C19.2153 -0.16152 20.5063 -0.0282845 21.6066 0.569015C22.707 1.16631 23.5266 2.1788 23.8854 3.38395V3.38395ZM0.123783 28.1273C-0.100925 27.3697 -0.0174412 26.5534 0.355876 25.8578C0.729193 25.1621 1.36178 24.6442 2.11453 24.4178L12.5312 21.2849L14.8923 11.2571C16.06 12.0689 17.4233 12.5496 18.8391 12.6489L17.103 19.8989L29.5162 16.1603L24.1285 11.0475C25.2558 10.182 26.1313 9.02751 26.6632 7.70486L34.1285 14.7802L44.5452 11.6473C45.298 11.4211 46.1093 11.5051 46.8005 11.8808C47.4918 12.2565 48.0066 12.893 48.2315 13.6505L55.8762 39.3896C56.1009 40.1471 56.0174 40.9635 55.6441 41.6591C55.2708 42.3547 54.6382 42.8727 53.8855 43.0991L11.4664 55.8754C10.7136 56.1016 9.90232 56.0176 9.21103 55.6419C8.51974 55.2662 8.00502 54.6297 7.78005 53.8722L0.123783 28.1273ZM23 33.0829L25.5868 34.4864L24.1921 37.0894C23.9866 37.5062 23.9501 37.987 24.0903 38.4303C24.2305 38.8737 24.5364 39.2449 24.9434 39.4656C25.3505 39.6862 25.8268 39.7391 26.2719 39.613C26.7169 39.4869 27.0959 39.1917 27.3287 38.7898L28.7234 36.1868L31.3102 37.5902C31.7262 37.8154 32.214 37.8652 32.6665 37.7287C33.119 37.5923 33.4991 37.2806 33.7234 36.8623C33.9472 36.4437 33.9967 35.9528 33.8611 35.4975C33.7255 35.0421 33.4157 34.6596 33 34.4339L30.4132 33.0305L31.8079 30.4275C32.0134 30.0107 32.0499 29.5299 31.9097 29.0865C31.7695 28.6432 31.4636 28.272 31.0566 28.0513C30.6495 27.8306 30.1732 27.7778 29.7281 27.9039C29.2831 28.0299 28.9041 28.3251 28.6713 28.7271L27.2766 31.3301L24.6898 29.9267C24.2756 29.7199 23.7978 29.6832 23.3572 29.8242C22.9166 29.9653 22.5477 30.2731 22.3284 30.6827C22.1091 31.0923 22.0566 31.5716 22.1819 32.0195C22.3072 32.4673 22.6005 32.8486 23 33.0829V33.0829Z" fill="#FCE9D7"/>
</svg>
