<?xml version="1.0" encoding="UTF-8" standalone="no"?>
<svg
   xmlns:dc="http://purl.org/dc/elements/1.1/"
   xmlns:cc="http://creativecommons.org/ns#"
   xmlns:rdf="http://www.w3.org/1999/02/22-rdf-syntax-ns#"
   xmlns:svg="http://www.w3.org/2000/svg"
   xmlns="http://www.w3.org/2000/svg"
   xmlns:sodipodi="http://sodipodi.sourceforge.net/DTD/sodipodi-0.dtd"
   xmlns:inkscape="http://www.inkscape.org/namespaces/inkscape"
   xml:space="preserve"
   version="1.1"
   style="image-rendering:optimizeQuality;shape-rendering:geometricPrecision;text-rendering:geometricPrecision"
   viewBox="0 0 825 825"
   x="0px"
   y="0px"
   fill-rule="evenodd"
   clip-rule="evenodd"
   id="svg845"
   sodipodi:docname="CrossLight.svg"
   width="825"
   height="825"
   inkscape:version="1.0.2 (e86c8708, 2021-01-15)"><metadata
     id="metadata849"><rdf:RDF><cc:Work
         rdf:about=""><dc:format>image/svg+xml</dc:format><dc:type
           rdf:resource="http://purl.org/dc/dcmitype/StillImage" /><dc:title /></cc:Work></rdf:RDF></metadata><sodipodi:namedview
     pagecolor="#ffffff"
     bordercolor="#666666"
     borderopacity="1"
     objecttolerance="10"
     gridtolerance="10"
     guidetolerance="10"
     inkscape:pageopacity="0"
     inkscape:pageshadow="2"
     inkscape:window-width="776"
     inkscape:window-height="480"
     id="namedview847"
     showgrid="false"
     fit-margin-top="0"
     fit-margin-left="0"
     fit-margin-right="0"
     fit-margin-bottom="0"
     inkscape:zoom="0.14393815"
     inkscape:cx="37.316599"
     inkscape:cy="202.01719"
     inkscape:window-x="0"
     inkscape:window-y="25"
     inkscape:window-maximized="0"
     inkscape:current-layer="svg845"
     inkscape:document-rotation="0" /><defs
     id="defs835"><style
       type="text/css"
       id="style833">
   
    .fil0 {fill:black}
   
  </style></defs><g
     id="g839"
     transform="translate(-11,-11)"
     style="fill:#fce9d7;fill-opacity:1"><path
       class="fil0"
       d="M 423,11 C 651,11 836,196 836,423 836,651 651,836 423,836 196,836 11,651 11,423 11,196 196,11 423,11 Z m 0,332 115,-114 c 52,-53 132,27 80,80 L 503,423 618,538 c 52,52 -28,132 -80,80 L 423,503 309,618 C 256,670 177,590 229,538 L 343,423 229,309 c -53,-53 27,-133 80,-80 z"
       id="path837"
       style="fill:#fce9d7;fill-opacity:1" /></g></svg>
