<svg width="15" height="11" viewBox="0 0 15 11" fill="none" xmlns="http://www.w3.org/2000/svg">
<path d="M8.49891 3.08606C8.43355 3.0926 8.37295 3.12321 8.32891 3.17194C8.28487 3.22067 8.26053 3.28405 8.26062 3.34973V5.621L7.01447 6.867C6.97762 6.90406 6.95257 6.9512 6.94248 7.00247C6.93239 7.05374 6.93771 7.10684 6.95776 7.15509C6.97782 7.20334 7.01171 7.24457 7.05518 7.27359C7.09864 7.30261 7.14972 7.31812 7.20198 7.31815H8.26062V10.228C8.26048 10.2628 8.2672 10.2972 8.28038 10.3294C8.29356 10.3615 8.31294 10.3908 8.33743 10.4155C8.36192 10.4401 8.39102 10.4597 8.42309 10.4731C8.45515 10.4866 8.48954 10.4935 8.5243 10.4937H10.1123C10.1472 10.4938 10.1818 10.487 10.2141 10.4737C10.2464 10.4604 10.2757 10.4408 10.3004 10.4161C10.3251 10.3914 10.3447 10.3621 10.358 10.3298C10.3713 10.2975 10.378 10.2629 10.3779 10.228V8.37665H11.4346V10.228C11.4345 10.2629 11.4412 10.2975 11.4545 10.3298C11.4678 10.3621 11.4874 10.3915 11.5121 10.4162C11.5368 10.4409 11.5661 10.4604 11.5984 10.4737C11.6307 10.487 11.6653 10.4938 11.7002 10.4937H13.2882C13.3229 10.4935 13.3573 10.4866 13.3894 10.4731C13.4215 10.4597 13.4506 10.4401 13.4751 10.4155C13.4996 10.3908 13.5189 10.3616 13.5321 10.3294C13.5453 10.2972 13.552 10.2628 13.5519 10.228V7.31815H14.6105C14.6628 7.31812 14.7139 7.30261 14.7573 7.27359C14.8008 7.24457 14.8347 7.20334 14.8547 7.15509C14.8748 7.10684 14.8801 7.05374 14.87 7.00247C14.8599 6.9512 14.8349 6.90406 14.798 6.867L11.0928 3.16223C11.0432 3.11297 10.9761 3.08533 10.9062 3.08533C10.8364 3.08533 10.7693 3.11297 10.7197 3.16223L9.84858 4.03522V3.34973C9.84846 3.31498 9.84149 3.28059 9.82807 3.24854C9.81465 3.21648 9.79505 3.18736 9.77039 3.16287C9.74572 3.13839 9.71647 3.11901 9.68431 3.10583C9.65215 3.09266 9.61771 3.08593 9.58295 3.08606H8.5243C8.51584 3.08565 8.50736 3.08565 8.4989 3.08606H8.49891Z" fill="#977171"/>
<path d="M0.587265 0.439697C0.446924 0.439699 0.312331 0.495429 0.213095 0.594666C0.113858 0.693902 0.0581072 0.8285 0.0581055 0.968842C0.0581046 1.10918 0.113855 1.24378 0.213091 1.34302C0.312328 1.44226 0.446922 1.49801 0.587265 1.49802C0.656757 1.49802 0.725568 1.48433 0.78977 1.45773C0.853973 1.43114 0.912308 1.39216 0.961446 1.34302C1.01058 1.29388 1.04956 1.23556 1.07616 1.17136C1.10275 1.10715 1.11644 1.03833 1.11644 0.968842C1.11643 0.828498 1.06068 0.693902 0.961443 0.594666C0.862204 0.495429 0.727609 0.439696 0.587265 0.439697V0.439697Z" fill="#977171"/>
<path d="M0.587265 2.5564C0.446922 2.5564 0.312328 2.61216 0.213091 2.7114C0.113855 2.81063 0.0581046 2.94523 0.0581055 3.08557C0.0581046 3.22591 0.113855 3.36051 0.213091 3.45975C0.312328 3.55899 0.446922 3.61474 0.587265 3.61475C0.656757 3.61475 0.725568 3.60106 0.78977 3.57446C0.853973 3.54787 0.912308 3.50889 0.961446 3.45975C1.01058 3.41061 1.04956 3.35229 1.07616 3.28809C1.10275 3.22388 1.11644 3.15506 1.11644 3.08557C1.11644 3.01608 1.10275 2.94729 1.07616 2.88309C1.04956 2.81889 1.01058 2.76053 0.961446 2.7114C0.912308 2.66226 0.853973 2.62327 0.78977 2.59668C0.725568 2.57009 0.656757 2.5564 0.587265 2.5564V2.5564Z" fill="#977171"/>
<path d="M0.587265 4.6731C0.446922 4.6731 0.312328 4.72883 0.213091 4.82806C0.113855 4.9273 0.0581046 5.0619 0.0581055 5.20224C0.0581072 5.34258 0.113858 5.47718 0.213095 5.57642C0.312331 5.67565 0.446924 5.73141 0.587265 5.73141C0.727609 5.73142 0.862204 5.67565 0.961443 5.57642C1.06068 5.47718 1.11643 5.34258 1.11644 5.20224C1.11644 5.13275 1.10275 5.06396 1.07616 4.99976C1.04956 4.93555 1.01058 4.8772 0.961446 4.82806C0.912308 4.77893 0.853973 4.73994 0.78977 4.71335C0.725568 4.68676 0.656757 4.6731 0.587265 4.6731V4.6731Z" fill="#977171"/>
<path d="M7.21746 0.70428C7.20782 0.703928 7.19818 0.704094 7.18856 0.704799H2.44363C2.4345 0.704324 2.42536 0.704324 2.41623 0.704799C2.34925 0.712223 2.28763 0.745024 2.244 0.796474C2.20036 0.847924 2.17801 0.91414 2.18151 0.981563C2.18501 1.04899 2.2141 1.11251 2.26283 1.15914C2.31156 1.20578 2.37624 1.232 2.44363 1.23242H7.18856C7.22385 1.23555 7.25941 1.23153 7.29312 1.22061C7.32683 1.20968 7.358 1.19206 7.38478 1.16882C7.41155 1.14558 7.43339 1.11719 7.44899 1.08532C7.46458 1.05345 7.47362 1.01874 7.47556 0.983302C7.4775 0.947861 7.4723 0.912411 7.46028 0.879024C7.44825 0.845636 7.42964 0.815001 7.40556 0.788966C7.38148 0.762932 7.35242 0.742023 7.3201 0.727474C7.28779 0.712924 7.25288 0.705036 7.21746 0.70428V0.70428Z" fill="#977171"/>
<path d="M2.44454 2.82037C2.40927 2.81962 2.37419 2.82591 2.34138 2.83887C2.30857 2.85183 2.27869 2.8712 2.25347 2.89584C2.22826 2.92049 2.20822 2.94989 2.19455 2.98236C2.18087 3.01483 2.17383 3.0497 2.17383 3.08493C2.17383 3.12016 2.18087 3.15506 2.19455 3.18753C2.20822 3.22 2.22826 3.2494 2.25347 3.27405C2.27869 3.29869 2.30857 3.31806 2.34138 3.33102C2.37419 3.34398 2.40927 3.35027 2.44454 3.34952H7.20601C7.27532 3.34804 7.34129 3.31954 7.38978 3.27008C7.43828 3.22062 7.46544 3.15414 7.46544 3.08493C7.46544 3.01572 7.43828 2.94927 7.38978 2.89981C7.34129 2.85035 7.27532 2.82185 7.20601 2.82037H2.44454Z" fill="#977171"/>
<path d="M2.41592 4.93761C2.34685 4.94264 2.2825 4.97457 2.23667 5.02654C2.19084 5.07851 2.16718 5.1464 2.17077 5.21563C2.17435 5.28486 2.20489 5.34992 2.25585 5.39687C2.3068 5.44382 2.3741 5.46893 2.44332 5.46679H7.19238C7.26151 5.46531 7.32731 5.43681 7.37567 5.38735C7.42404 5.33789 7.45113 5.27141 7.45113 5.2022C7.45113 5.13299 7.42404 5.06654 7.37567 5.01708C7.32731 4.96762 7.26151 4.93909 7.19238 4.93761H2.44332C2.43419 4.93714 2.42505 4.93714 2.41592 4.93761V4.93761Z" fill="#977171"/>
</svg>
