<svg width="52" height="62" viewBox="0 0 52 62" fill="none" xmlns="http://www.w3.org/2000/svg">
<path d="M1.31301 0.00218831C1.28895 0.0091909 1.26508 0.0168208 1.24141 0.0249832C1.21736 0.0319858 1.19348 0.0396157 1.16982 0.0477781C1.16186 0.047719 1.15391 0.047719 1.14595 0.0477781C1.10588 0.0538324 1.06606 0.0614623 1.02663 0.070573C0.994262 0.0847022 0.962416 0.0999109 0.931164 0.116163C0.915117 0.123494 0.899203 0.131094 0.883434 0.138958C0.859126 0.15351 0.835249 0.168711 0.811838 0.184547C0.787781 0.19155 0.763906 0.19918 0.740242 0.207342C0.715935 0.221895 0.692057 0.237096 0.668647 0.252932C0.652599 0.260263 0.636686 0.267864 0.620916 0.275727C0.596269 0.297756 0.572386 0.320573 0.54932 0.344112C0.533061 0.35897 0.517146 0.374172 0.50159 0.389701C0.468854 0.4113 0.437001 0.434117 0.406129 0.458086C0.398086 0.465599 0.39013 0.4732 0.382264 0.480881C0.365685 0.503238 0.349767 0.526048 0.334533 0.549266C0.309437 0.57875 0.285547 0.609174 0.262937 0.640445C0.254895 0.647958 0.246939 0.655559 0.239072 0.66324C0.23084 0.678303 0.222883 0.693504 0.215207 0.70883C0.198191 0.738678 0.182268 0.769096 0.167476 0.80001C0.159244 0.815072 0.151288 0.830274 0.143611 0.845599C0.126595 0.875448 0.110672 0.905865 0.0958805 0.936779C0.0869034 0.966919 0.0789427 0.997329 0.0720153 1.02796C0.0637835 1.04302 0.0558266 1.05822 0.04815 1.07355C0.0479014 1.08874 0.0479014 1.10394 0.04815 1.11914C0.0391729 1.14928 0.0312122 1.17969 0.0242847 1.21032C0.0237254 1.23311 0.0237254 1.25591 0.0242847 1.2787C0.0157414 1.30131 0.00778298 1.32411 0.000419494 1.34709C-0.000139831 1.36987 -0.000139831 1.39268 0.000419494 1.41547C0.000170913 1.43067 0.000170913 1.44587 0.000419494 1.46106V11.6732V21.8853V49.6039C-0.00218468 50.1911 0.405212 50.7605 0.978895 50.9716L11.5273 56.0092L22.219 61.1153C23.145 61.5647 24.4374 60.8081 24.4384 59.816V51.0627H29.0206C29.8203 51.0627 30.5479 50.3677 30.5479 49.6039V1.46106C30.5479 0.697218 29.8203 0.0022649 29.0206 0.00218831H1.62326C1.59145 0.00124004 1.5596 0.00124004 1.5278 0.00218831C1.51189 0.00195051 1.49597 0.00195051 1.48007 0.00218831C1.42444 -0.000729437 1.36864 -0.000729437 1.31301 0.00218831ZM8.04301 2.91993H27.4932V48.145H24.4384V39.3918V11.6732C24.4468 11.1308 24.1094 10.5968 23.6032 10.3511L12.9115 5.24501L8.04301 2.91993ZM11.5273 7.86643C-0.230278 42.4995 5.64853 25.1829 11.5273 7.86643V7.86643ZM21.3837 57.4453C3.05517 59.0258 12.2194 58.2355 21.3837 57.4453V57.4453Z" fill="#FCE9D7"/>
<path d="M30.5479 25.5325H49.6401" stroke="#FCE9D7" stroke-width="4" stroke-linecap="round" stroke-linejoin="round"/>
<path d="M38.2371 19.2443L49.6401 25.5325" stroke="#FCE9D7" stroke-width="4" stroke-linecap="round" stroke-linejoin="round"/>
<path d="M49.6401 25.5325L38.2371 31.8207" stroke="#FCE9D7" stroke-width="4" stroke-linecap="round" stroke-linejoin="round"/>
</svg>
