<svg width="47" height="55" viewBox="0 0 47 55" fill="none" xmlns="http://www.w3.org/2000/svg">
<path d="M4.17853 7.27153H23.9455V10.8495H4.17853C4.00797 10.8495 3.85448 10.9179 3.73509 11.0206C3.63276 11.1405 3.56454 11.2946 3.56454 11.4657V50.8229C3.56454 50.9941 3.63276 51.1482 3.73509 51.2509C3.85448 51.3707 4.00797 51.4392 4.17853 51.4392H35.1678C35.3384 51.4392 35.4919 51.3707 35.5942 51.268C35.7136 51.1482 35.7818 50.9941 35.7818 50.8229V23.3979H39.3464V50.8229C39.3464 51.9699 38.8688 53.0142 38.1184 53.7674C37.3509 54.5378 36.3105 55 35.1678 55H4.17853C3.03583 55 1.99546 54.5378 1.22797 53.7845C0.477545 53.0142 0 51.9699 0 50.8229V11.4657C0 10.3188 0.477545 9.27448 1.22797 8.50412C1.99546 7.75087 3.03583 7.27153 4.17853 7.27153ZM9.94318 19.9911C8.95398 19.9911 8.16944 19.1865 8.16944 18.2107C8.16944 17.2178 8.95398 16.4132 9.94318 16.4132H29.4032C30.3924 16.4132 31.1769 17.2178 31.1769 18.2107C31.1769 19.1865 30.3924 19.9911 29.4032 19.9911H9.94318ZM9.94318 27.9173C8.95398 27.9173 8.16944 27.1299 8.16944 26.1369C8.16944 25.1611 8.95398 24.3565 9.94318 24.3565H29.4032C30.3924 24.3565 31.1769 25.1611 31.1769 26.1369C31.1769 27.1299 30.3924 27.9173 29.4032 27.9173H9.94318ZM9.94318 35.8607C8.95398 35.8607 8.16944 35.0561 8.16944 34.0803C8.16944 33.0874 8.95398 32.2828 9.94318 32.2828H29.4032C30.3924 32.2828 31.1769 33.0874 31.1769 34.0803C31.1769 35.0561 30.3924 35.8607 29.4032 35.8607H9.94318ZM9.94318 43.7869C8.95398 43.7869 8.16944 42.9994 8.16944 42.0065C8.16944 41.0136 8.95398 40.2261 9.94318 40.2261H23.775C24.7471 40.2261 25.5487 41.0136 25.5487 42.0065C25.5487 42.9994 24.7471 43.7869 23.775 43.7869H9.94318ZM38.323 0.749097L40.1821 6.84355L46.2537 8.70955C46.8165 8.88074 47.1235 9.47991 46.953 10.0449C46.8506 10.3872 46.5778 10.644 46.2537 10.7467L40.1821 12.6127L38.323 18.7072C38.1525 19.2721 37.5556 19.5974 36.9927 19.4091C36.6516 19.3064 36.3958 19.0325 36.2935 18.7072L34.4345 12.6127L28.3628 10.7467C27.8 10.5755 27.4759 9.97637 27.6465 9.41144C27.7659 9.06905 28.0388 8.81227 28.3628 8.70955L34.4345 6.84355L36.2935 0.749097C36.464 0.184162 37.061 -0.123984 37.6238 0.0472084C37.9649 0.149924 38.2207 0.423832 38.323 0.749097Z" fill="#977171"/>
</svg>
