<svg width="74" height="73" viewBox="0 0 74 73" fill="none" xmlns="http://www.w3.org/2000/svg">
<path fill-rule="evenodd" clip-rule="evenodd" d="M10.0735 32.1381L17.6997 32.8221L31.9839 8.78136L33.6637 9.77423L19.8545 33.0156L56.1771 36.2747L41.2441 9.85631L42.9396 8.90156L58.5302 36.4857L66.6891 37.2177C68.7833 37.4063 70.6049 38.4265 71.8508 39.9187C73.0987 41.412 73.7799 43.383 73.5922 45.4684L71.8 65.4371C71.6124 67.5313 70.5922 69.3528 69.0999 70.5988C67.6468 71.8135 65.7412 72.4907 63.7183 72.3529L6.93363 67.2606C4.83943 67.072 3.01886 66.0518 1.77192 64.5595C0.524973 63.0654 -0.156154 61.0953 0.0304965 59.0089L1.82273 39.0402C2.01036 36.946 3.03058 35.1254 4.52281 33.8795C5.97692 32.6648 7.88154 31.9876 9.9044 32.1244L10.0735 32.1381V32.1381ZM57.4377 47.9555L62.4958 58.3991L63.2581 48.448C63.3079 47.802 63.4701 47.332 63.7418 47.0339C64.0135 46.7359 64.3594 46.6059 64.7806 46.6479C65.2115 46.6919 65.5438 46.8864 65.7686 47.2343C65.9943 47.5822 66.0823 48.0815 66.0324 48.7285L65.0249 61.8751C64.9125 63.3429 64.3144 64.0201 63.2297 63.9107C62.9581 63.8833 62.7177 63.8159 62.5056 63.7045C62.2975 63.597 62.103 63.4357 61.929 63.2305C61.7522 63.0204 61.5958 62.781 61.4521 62.5074C61.3085 62.2376 61.1648 61.9611 61.0212 61.6796L56.0969 51.3748L55.3464 61.1627C55.2976 61.8008 55.1285 62.2699 54.8393 62.5699C54.5461 62.8699 54.1933 62.9999 53.7799 62.9579C53.3519 62.9149 53.0197 62.7165 52.7881 62.3598C52.5525 62.0021 52.4607 61.5067 52.5095 60.8764L53.4975 47.9818C53.5395 47.4336 53.6285 47.0115 53.7604 46.7105C53.9148 46.3802 54.1523 46.1222 54.4669 45.9346C54.7826 45.7499 55.1148 45.6736 55.4588 45.7088C55.7334 45.7362 55.9621 45.8104 56.1458 45.9267C56.3334 46.0479 56.4937 46.1974 56.6266 46.3792C56.7595 46.561 56.8924 46.7906 57.0253 47.075C57.1582 47.3545 57.297 47.6476 57.4377 47.9555V47.9555ZM49.3472 48.0112L42.5321 47.3242L42.2174 51.4354L48.4931 52.0676C48.9554 52.1145 49.2906 52.266 49.4987 52.5181C49.7108 52.7712 49.7987 53.0898 49.7694 53.468C49.7411 53.8452 49.6052 54.1452 49.3648 54.3602C49.1205 54.5752 48.7668 54.6612 48.2977 54.6133L42.0219 53.981L41.6574 58.746L48.7042 59.4564C49.1811 59.5043 49.529 59.6656 49.7508 59.9353C49.9756 60.205 50.0714 60.548 50.0401 60.9565C50.0098 61.3503 49.8632 61.6611 49.6013 61.8809C49.3424 62.1028 48.9749 62.1907 48.499 62.1428L40.2795 61.3142C39.6219 61.2477 39.1616 61.0366 38.8987 60.6809C38.6349 60.3252 38.5293 59.7809 38.585 59.0529L39.5486 46.4779C39.5867 45.9912 39.6825 45.6013 39.8349 45.3062C39.9874 45.0121 40.2063 44.8059 40.4916 44.6935C40.777 44.5811 41.1336 44.5469 41.5617 44.5899L49.5476 45.3951C50.0313 45.444 50.3802 45.6003 50.5942 45.8613C50.8082 46.1261 50.903 46.4535 50.8737 46.8395C50.8434 47.2362 50.6997 47.5431 50.4486 47.761C50.1974 47.975 49.83 48.06 49.3472 48.0112V48.0112ZM30.8073 53.7924L28.0359 53.513L27.6733 58.2466C27.6215 58.9239 27.4398 59.4203 27.128 59.7418C26.8163 60.0633 26.441 60.2021 26.0101 60.1581C25.5547 60.1122 25.199 59.904 24.9469 59.5297C24.6957 59.1545 24.596 58.6307 24.6468 57.9652L25.6348 45.0756C25.6915 44.3319 25.886 43.814 26.2163 43.5257C26.5466 43.2374 27.042 43.126 27.7095 43.1934L31.5891 43.5843C32.7373 43.7006 33.6129 43.8863 34.2168 44.1472C34.8139 44.4003 35.3182 44.7687 35.7296 45.2534C36.14 45.742 36.4361 46.3137 36.6169 46.9753C36.8016 47.6369 36.8602 48.3688 36.7996 49.1672C36.6687 50.8715 36.1009 52.1136 35.0973 52.8983C34.0917 53.6801 32.664 53.9791 30.8073 53.7924V53.7924ZM30.6607 46.0567L28.6232 45.8515L28.2313 50.9663L30.2688 51.1725C30.9812 51.2438 31.5861 51.2184 32.0787 51.0992C32.5683 50.98 32.9543 50.7445 33.2367 50.3888C33.5162 50.036 33.6794 49.5464 33.7272 48.9317C33.7839 48.192 33.6354 47.5724 33.2846 47.0701C32.8878 46.5326 32.0132 46.1925 30.6607 46.0567V46.0567ZM15.8645 41.7168C17.4154 41.8732 18.717 42.3579 19.7715 43.1739C20.8269 43.9869 21.592 45.0717 22.0621 46.4261C22.5331 47.7796 22.7022 49.3304 22.5683 51.0787C22.4696 52.3706 22.2223 53.5305 21.8285 54.5547C21.4347 55.5817 20.8982 56.4495 20.2132 57.1619C19.5281 57.8733 18.718 58.3874 17.775 58.7079C16.8329 59.0255 15.7775 59.1271 14.6019 59.0079C13.4341 58.8906 12.4041 58.575 11.5149 58.058C10.6227 57.544 9.89951 56.8707 9.33956 56.041C8.77961 55.2124 8.38481 54.2429 8.15125 53.1289C7.91672 52.0178 7.85027 50.8344 7.94604 49.5816C8.04474 48.2965 8.29784 47.1365 8.71121 46.0958C9.12359 45.058 9.66987 44.1951 10.3529 43.5032C11.0331 42.8143 11.8383 42.3159 12.7657 42.009C13.6902 41.6973 14.7241 41.6015 15.8645 41.7168V41.7168ZM19.5037 50.7454C19.5975 49.5239 19.5008 48.4431 19.2183 47.5079C18.933 46.5766 18.4805 45.8486 17.862 45.3199C17.2444 44.7941 16.5075 44.4883 15.6583 44.4032C15.0573 44.3427 14.4876 44.415 13.957 44.6163C13.4234 44.8205 12.9533 45.1469 12.5468 45.5964C12.1413 46.046 11.8012 46.6391 11.5286 47.3721C11.2579 48.1099 11.0849 48.9483 11.0126 49.8904C10.9403 50.8441 10.9823 51.7109 11.1347 52.5035C11.2921 53.2921 11.5452 53.9615 11.896 54.5068C12.2468 55.0521 12.666 55.4742 13.1507 55.7743C13.6394 56.0792 14.1827 56.259 14.7876 56.3196C15.5625 56.3977 16.2886 56.2521 16.9727 55.8857C17.6519 55.5182 18.2177 54.9006 18.6731 54.0319C19.1245 53.168 19.4021 52.0696 19.5037 50.7454V50.7454ZM37.513 0C39.8603 0 41.764 1.90364 41.764 4.25094C41.764 6.59824 39.8603 8.50188 37.513 8.50188C35.1657 8.50188 33.2621 6.59824 33.2621 4.25094C33.2621 1.90364 35.1657 0 37.513 0ZM66.3529 41.0963L9.73729 36.0157C8.72293 35.9248 7.76036 36.26 7.02744 36.8718C6.2955 37.4825 5.79516 38.363 5.70135 39.3637L3.90911 59.345C3.81823 60.3594 4.15244 61.322 4.76516 62.0549C5.37886 62.7898 6.26325 63.2921 7.2698 63.382L63.8864 68.4616C64.8998 68.5535 65.8624 68.2183 66.5963 67.6065C67.3272 66.9948 67.8286 66.1153 67.9214 65.1146L69.7146 45.1332C69.8055 44.1189 69.4703 43.1563 68.8576 42.4224C68.2449 41.6875 67.3595 41.1862 66.3529 41.0963V41.0963Z" fill="#C08C85"/>
</svg>
