<svg width="44" height="44" viewBox="0 0 44 44" fill="none" xmlns="http://www.w3.org/2000/svg">
<path d="M22.0013 44C25.9513 44.0003 29.8285 42.9368 33.2257 40.9213C36.6229 38.9058 39.4148 36.0126 41.3082 32.5454C43.2016 29.0783 44.1266 25.1653 43.9861 21.2173C43.8455 17.2692 42.6447 13.4319 40.5095 10.1082C38.3744 6.78456 35.3839 4.09721 31.8519 2.3284C28.32 0.559592 24.377 -0.225413 20.437 0.055827C16.4971 0.337067 12.7055 1.67417 9.46054 3.92673C6.21557 6.17929 3.63693 9.26417 1.99543 12.8574C1.95674 12.9321 1.93655 13.015 1.93655 13.0991C1.93655 13.1832 1.95674 13.2661 1.99543 13.3408L3.91301 16.6721C3.964 16.7604 4.0396 16.832 4.13058 16.8781C4.22157 16.9242 4.324 16.9428 4.42538 16.9317C4.52677 16.9205 4.62271 16.8801 4.70152 16.8154C4.78032 16.7506 4.83858 16.6643 4.86917 16.567C5.87129 13.4083 7.72745 10.5885 10.2324 8.41925C12.7372 6.25005 15.7932 4.81606 19.0623 4.27591C22.3314 3.73576 25.6862 4.1105 28.7556 5.35866C31.825 6.60683 34.4894 8.67979 36.454 11.3482C38.4187 14.0167 39.6071 17.1767 39.8878 20.4786C40.1684 23.7806 39.5304 27.0958 38.0443 30.0577C36.5582 33.0195 34.282 35.5125 31.4673 37.261C28.6526 39.0094 25.4092 39.9451 22.0959 39.9646C21.7158 39.9773 21.3434 39.8565 21.0431 39.6233C20.7427 39.3901 20.5334 39.0592 20.4515 38.6878C20.4073 38.4595 20.4142 38.2242 20.4716 37.9988C20.5291 37.7734 20.6357 37.5635 20.7839 37.3842C20.932 37.2049 21.118 37.0606 21.3285 36.9617C21.539 36.8628 21.7687 36.8117 22.0013 36.812C24.7725 36.8127 27.4883 36.0358 29.84 34.5695C32.1917 33.1032 34.0848 31.0065 35.3042 28.5176C36.5236 26.0287 37.0203 23.2476 36.7379 20.4905C36.4555 17.7333 35.4052 15.1107 33.7066 12.9208C32.0079 10.7309 29.729 9.06164 27.1289 8.10272C24.5289 7.14381 21.7119 6.93374 18.9984 7.4964C16.2849 8.05907 13.7837 9.37189 11.7791 11.2856C9.7745 13.1993 8.34699 15.6372 7.65885 18.3219C7.63501 18.4217 7.64088 18.5263 7.67575 18.6227C7.71062 18.7192 7.77295 18.8033 7.85506 18.8648C7.93717 18.9262 8.03548 18.9623 8.13784 18.9686C8.24021 18.9748 8.34217 18.9509 8.43114 18.8999L11.6936 17.0241C12.0129 16.832 12.3888 16.7563 12.7575 16.8099C13.1262 16.8635 13.465 17.0432 13.7163 17.3184C13.8702 17.4938 13.9833 17.7012 14.0473 17.9256C14.1114 18.1501 14.1248 18.3859 14.0866 18.6162C14.0484 18.8464 13.9595 19.0653 13.8264 19.2571C13.6933 19.4488 13.5194 19.6086 13.317 19.7249L6.24037 23.8075C6.06102 23.9111 5.86301 23.9784 5.65766 24.0054C5.4523 24.0324 5.24364 24.0187 5.04359 23.965C4.84354 23.9113 4.65604 23.8188 4.49179 23.6926C4.32754 23.5664 4.18978 23.409 4.08638 23.2295L1.25992 18.3219C1.20663 18.2267 1.12502 18.1505 1.02643 18.1037C0.927826 18.057 0.817127 18.0421 0.709698 18.0612C0.602269 18.0803 0.503438 18.1323 0.426928 18.2101C0.350418 18.2879 0.300024 18.3876 0.282743 18.4953C-0.22654 21.6407 -0.0462837 24.8591 0.811031 27.9279C1.66835 30.9966 3.18224 33.8424 5.24791 36.2682C7.31358 38.6939 9.88167 40.6418 12.7744 41.9768C15.6671 43.3118 18.8154 44.0021 22.0013 44V44ZM20.4252 12.2269C20.4252 11.8088 20.5912 11.4079 20.8868 11.1123C21.1824 10.8167 21.5833 10.6506 22.0013 10.6506C22.4193 10.6506 22.8202 10.8167 23.1157 11.1123C23.4113 11.4079 23.5774 11.8088 23.5774 12.2269V20.4237H28.6209C29.0389 20.4237 29.4398 20.5898 29.7353 20.8854C30.0309 21.181 30.197 21.5819 30.197 22C30.197 22.4181 30.0309 22.819 29.7353 23.1146C29.4398 23.4102 29.0389 23.5763 28.6209 23.5763H22.0013C21.5833 23.5763 21.1824 23.4102 20.8868 23.1146C20.5912 22.819 20.4252 22.4181 20.4252 22V12.2269Z" fill="#977171"/>
</svg>
