<svg width="59" height="50" viewBox="0 0 59 50" fill="none" xmlns="http://www.w3.org/2000/svg">
<path d="M20.6897 20.5678C20.6897 25.9252 25.7392 33.4379 28.0792 36.64C28.6334 37.4405 29.8035 37.4405 30.4192 36.64C32.7593 33.4379 37.8088 25.8636 37.8088 20.5678C37.8088 15.8262 33.9909 12.0082 29.2492 12.0082C24.5076 12.0082 20.6897 15.8262 20.6897 20.5678ZM33.4366 20.5062C33.4366 22.7846 31.5893 24.632 29.3108 24.632C27.0324 24.632 25.185 22.7846 25.185 20.5062C25.185 18.2278 27.0324 16.3804 29.3108 16.3804C31.5893 16.3804 33.4366 18.2278 33.4366 20.5062Z" fill="#977171"/>
<path d="M13.7313 23.462H10.406C11.0218 13.6093 19.1502 5.78874 29.1877 5.78874C33.6214 5.78874 37.8704 7.32822 41.2573 10.1609C41.6883 10.5304 42.3041 10.4688 42.6736 10.0993L45.2599 7.32822C45.6294 6.89717 45.6294 6.21979 45.1983 5.85032C40.7646 2.03239 35.0993 0.000271872 29.1877 0.000271872C15.9481 -0.0613075 5.2333 10.3456 4.6175 23.462H1.72327C0.368523 23.462 -0.432009 24.9399 0.245364 26.1099L6.21857 35.9627C6.89594 37.0711 8.49701 37.0711 9.17438 35.9627L15.1476 26.1099C15.8865 24.8784 15.086 23.462 13.7313 23.462Z" fill="#977171"/>
<path d="M58.2532 23.2157L52.28 13.363C51.6026 12.2546 50.0015 12.2546 49.3241 13.363L43.3509 23.2157C42.6736 24.3857 43.4741 25.8636 44.8288 25.8636H48.1541C47.5383 35.7163 39.4099 43.5369 29.3724 43.5369C24.9387 43.5369 20.6897 41.9974 17.3028 39.1648C16.8718 38.7953 16.256 38.8569 15.8865 39.2263L13.2386 41.9974C12.8691 42.4285 12.8691 43.1059 13.3002 43.4753C17.7339 47.2933 23.3992 49.3254 29.3108 49.3254C42.5504 49.3254 53.2652 38.8569 53.881 25.802H56.7752C58.13 25.802 58.9305 24.3857 58.2532 23.2157Z" fill="#977171"/>
</svg>
