<?xml version="1.0" encoding="UTF-8" standalone="no"?>
<svg
   xmlns:dc="http://purl.org/dc/elements/1.1/"
   xmlns:cc="http://creativecommons.org/ns#"
   xmlns:rdf="http://www.w3.org/1999/02/22-rdf-syntax-ns#"
   xmlns:svg="http://www.w3.org/2000/svg"
   xmlns="http://www.w3.org/2000/svg"
   xmlns:sodipodi="http://sodipodi.sourceforge.net/DTD/sodipodi-0.dtd"
   xmlns:inkscape="http://www.inkscape.org/namespaces/inkscape"
   width="59"
   height="50"
   viewBox="0 0 59 50"
   fill="none"
   version="1.1"
   id="svg839"
   sodipodi:docname="RelocateLight.svg"
   inkscape:version="1.0.2 (e86c8708, 2021-01-15)">
  <metadata
     id="metadata845">
    <rdf:RDF>
      <cc:Work
         rdf:about="">
        <dc:format>image/svg+xml</dc:format>
        <dc:type
           rdf:resource="http://purl.org/dc/dcmitype/StillImage" />
        <dc:title />
      </cc:Work>
    </rdf:RDF>
  </metadata>
  <defs
     id="defs843" />
  <sodipodi:namedview
     pagecolor="#ffffff"
     bordercolor="#666666"
     borderopacity="1"
     objecttolerance="10"
     gridtolerance="10"
     guidetolerance="10"
     inkscape:pageopacity="0"
     inkscape:pageshadow="2"
     inkscape:window-width="962"
     inkscape:window-height="677"
     id="namedview841"
     showgrid="false"
     inkscape:zoom="12.067797"
     inkscape:cx="29.5"
     inkscape:cy="25"
     inkscape:window-x="0"
     inkscape:window-y="25"
     inkscape:window-maximized="0"
     inkscape:current-layer="svg839"
     inkscape:document-rotation="0" />
  <path
     d="m 20.6897,20.5678 c 0,5.3574 5.0495,12.870101 7.3895,16.072201 0.5542,0.800499 1.7243,0.800499 2.34,0 2.3401,-3.2021 7.3896,-10.776401 7.3896,-16.072201 0,-4.7416 -3.8179,-8.5596 -8.5596,-8.5596 -4.7416,0 -8.5595,3.818 -8.5595,8.5596 z m 12.7469,-0.0616 c 0,2.2784 -1.8473,4.1258 -4.1258,4.1258 -2.2784,0 -4.1258,-1.8474 -4.1258,-4.1258 0,-2.2784 1.8474,-4.1258 4.1258,-4.1258 2.2785,0 4.1258,1.8474 4.1258,4.1258 z"
     fill="#977171"
     id="path833"
     style="fill:#fce9d7;fill-opacity:1;stroke-width:1" />
  <path
     d="M13.7313 23.462H10.406C11.0218 13.6093 19.1502 5.78874 29.1877 5.78874C33.6214 5.78874 37.8704 7.32822 41.2573 10.1609C41.6883 10.5304 42.3041 10.4688 42.6736 10.0993L45.2599 7.32822C45.6294 6.89717 45.6294 6.21979 45.1983 5.85032C40.7646 2.03239 35.0993 0.000271872 29.1877 0.000271872C15.9481 -0.0613075 5.2333 10.3456 4.6175 23.462H1.72327C0.368523 23.462 -0.432009 24.9399 0.245364 26.1099L6.21857 35.9627C6.89594 37.0711 8.49701 37.0711 9.17438 35.9627L15.1476 26.1099C15.8865 24.8784 15.086 23.462 13.7313 23.462Z"
     fill="#977171"
     id="path835"
     style="fill:#fce9d7;fill-opacity:1" />
  <path
     d="M58.2532 23.2157L52.28 13.363C51.6026 12.2546 50.0015 12.2546 49.3241 13.363L43.3509 23.2157C42.6736 24.3857 43.4741 25.8636 44.8288 25.8636H48.1541C47.5383 35.7163 39.4099 43.5369 29.3724 43.5369C24.9387 43.5369 20.6897 41.9974 17.3028 39.1648C16.8718 38.7953 16.256 38.8569 15.8865 39.2263L13.2386 41.9974C12.8691 42.4285 12.8691 43.1059 13.3002 43.4753C17.7339 47.2933 23.3992 49.3254 29.3108 49.3254C42.5504 49.3254 53.2652 38.8569 53.881 25.802H56.7752C58.13 25.802 58.9305 24.3857 58.2532 23.2157Z"
     fill="#977171"
     id="path837"
     style="fill:#fce9d7;fill-opacity:1" />
</svg>
