<svg width="26" height="25" viewBox="0 0 26 25" fill="none" xmlns="http://www.w3.org/2000/svg">
<path d="M12.9943 0.678101C16.3958 0.678101 19.4606 1.9956 21.6897 4.11096C23.907 6.23717 25.2887 9.16047 25.2887 12.3942C25.2887 15.6391 23.907 18.5628 21.6897 20.6886C19.4606 22.804 16.3958 24.1215 12.9943 24.1215C9.60375 24.1215 6.539 22.804 4.30991 20.6886C2.09259 18.5628 0.710938 15.6391 0.710938 12.3942C0.710938 9.16047 2.09259 6.23717 4.30991 4.11096C6.53941 1.9956 9.60416 0.678101 12.9943 0.678101ZM12.9943 4.85303C14.1899 4.85303 15.2579 5.30679 16.0359 6.04885C16.8135 6.79091 17.301 7.8205 17.301 8.95006C17.301 10.0796 16.8135 11.1096 16.0359 11.8517C15.2579 12.5933 14.1899 13.0475 12.9943 13.0475C11.8097 13.0475 10.7417 12.5933 9.96369 11.8517C9.18613 11.1096 8.69863 10.0796 8.69863 8.95006C8.69863 7.8205 9.18613 6.79091 9.96369 6.04885C10.7417 5.30679 11.8097 4.85303 12.9943 4.85303ZM9.05856 14.3654H16.9414C18.1955 14.3654 19.333 14.8528 20.1573 15.6391C20.9353 16.392 21.4346 17.4107 21.4809 18.5294C22.8394 16.8349 23.6519 14.7091 23.6519 12.3942C23.6519 9.59293 22.4563 7.05674 20.529 5.21805C18.6018 3.37975 15.9429 2.23895 12.9943 2.23895C10.0571 2.23895 7.39822 3.37936 5.47056 5.21805C3.54413 7.05674 2.34813 9.59293 2.34813 12.3942C2.34813 14.7091 3.16063 16.8349 4.50734 18.5294C4.55366 17.4107 5.06431 16.392 5.84228 15.6391C6.66697 14.8528 7.80447 14.3654 9.05856 14.3654Z" fill="#977171"/>
</svg>
