<svg width="18" height="17" viewBox="0 0 18 17" fill="none" xmlns="http://www.w3.org/2000/svg">
<path d="M18 8.51662C18 8.17149 17.8777 7.84049 17.66 7.59645C17.4424 7.3524 17.1471 7.21529 16.8393 7.21529H4.10933L8.82757 2.28326C8.94524 2.16853 9.04108 2.0284 9.10937 1.87122C9.17766 1.71404 9.217 1.54305 9.22505 1.36845C9.23309 1.19385 9.20967 1.01922 9.15619 0.854997C9.1027 0.690769 9.02025 0.540307 8.91375 0.412596C8.80725 0.284886 8.67889 0.182545 8.53634 0.111683C8.39378 0.0408208 8.23995 0.00289098 8.08403 0.00015891C7.92811 -0.00257316 7.7733 0.0299485 7.62883 0.0957813C7.48437 0.161614 7.35322 0.259408 7.24322 0.383325L0.368975 7.5634C0.252548 7.68516 0.159709 7.83248 0.0962331 7.99618C0.0327567 8.15989 0 8.33649 0 8.515C0 8.6935 0.0327567 8.8701 0.0962331 9.03381C0.159709 9.19752 0.252548 9.34483 0.368975 9.46659L7.24322 16.6499C7.46832 16.8855 7.76767 17.0111 8.07541 16.9992C8.38314 16.9873 8.67406 16.8389 8.88416 16.5865C9.09425 16.3341 9.20633 15.9985 9.19571 15.6535C9.1851 15.3084 9.05268 14.9823 8.82757 14.7467L4.10933 9.81795H16.8393C17.1471 9.81795 17.4424 9.68085 17.66 9.4368C17.8777 9.19275 18 8.86176 18 8.51662Z" fill="#977171"/>
</svg>
