<svg width="18" height="23" viewBox="0 0 18 23" fill="none" xmlns="http://www.w3.org/2000/svg">
<path d="M16.012 4.6156H13.266V1.8912C13.2661 1.76235 13.2403 1.63474 13.19 1.51568C13.1398 1.39663 13.066 1.28845 12.973 1.19736L12.173 0.413357C11.9854 0.229918 11.7311 0.126993 11.466 0.127198H6.53804C6.27299 0.126993 6.01869 0.229918 5.83104 0.413357L5.03104 1.19736C4.93805 1.28845 4.86431 1.39663 4.81404 1.51568C4.76376 1.63474 4.73793 1.76235 4.73804 1.8912V4.6156H1.98804C1.72282 4.6156 1.46847 4.71885 1.28093 4.90263C1.09339 5.08642 0.988037 5.33568 0.988037 5.5956V21.0433C0.988037 21.3032 1.09339 21.5525 1.28093 21.7363C1.46847 21.9201 1.72282 22.0233 1.98804 22.0233H16.012C16.2773 22.0233 16.5316 21.9201 16.7191 21.7363C16.9067 21.5525 17.012 21.3032 17.012 21.0433V5.5956C17.012 5.33568 16.9067 5.08642 16.7191 4.90263C16.5316 4.71885 16.2773 4.6156 16.012 4.6156ZM6.73404 2.2979L6.95204 2.08426H11.052L11.27 2.2979V4.6156H6.73404V2.2979Z" fill="black"/>
</svg>
