<svg width="23" height="25" viewBox="0 0 23 25" fill="none" xmlns="http://www.w3.org/2000/svg">
<path d="M19.2279 1.9H14.6279V1.86C14.6279 1.1 13.9379 0.5 13.0639 0.5H9.93595C9.06195 0.5 8.37195 1.1 8.37195 1.86V1.9H3.77195C3.28895 1.9 2.89795 2.24 2.89795 2.66V3.42C2.89795 3.84 3.28895 4.18 3.77195 4.18H19.2279C19.7109 4.18 20.1019 3.84 20.1019 3.42V2.66C20.1019 2.24 19.7109 1.9 19.2279 1.9Z" fill="#FBAEAE"/>
<path d="M18.0778 5.22003H4.9218C4.6688 5.22003 4.4848 5.40003 4.5078 5.62003L5.1518 17.2C5.2208 18.48 6.4398 19.5 7.9118 19.5H15.0648C16.5368 19.5 17.7558 18.5 17.8248 17.2L18.4688 5.62003C18.5148 5.42003 18.3078 5.22003 18.0778 5.22003ZM10.0738 16.4C10.0738 16.76 9.7518 17.04 9.3378 17.04C8.9238 17.04 8.6018 16.76 8.6018 16.4V8.34003C8.6018 7.98003 8.9238 7.70003 9.3378 7.70003C9.7518 7.70003 10.0738 7.98003 10.0738 8.34003V16.4ZM14.3978 16.4C14.3978 16.76 14.0758 17.04 13.6618 17.04C13.2478 17.04 12.9258 16.76 12.9258 16.4V8.34003C12.9258 7.98003 13.2478 7.70003 13.6618 7.70003C14.0758 7.70003 14.3978 7.98003 14.3978 8.34003V16.4Z" fill="#FBAEAE"/>
</svg>
