<svg width="34" height="34" viewBox="0 0 34 34" fill="none" xmlns="http://www.w3.org/2000/svg">
<path d="M28.7111 16.9996C28.7119 17.8345 28.036 18.5107 27.2004 18.5107H17.0038C17.0026 18.5107 17.0011 18.5111 17 18.5111C16.1655 18.5111 15.4889 17.8345 15.4889 17V6.8C15.4889 5.96549 16.1655 5.28889 17 5.28889C17.8345 5.28889 18.5111 5.96549 18.5111 6.8V15.4889H27.2004V15.4896C28.0353 15.4908 28.7111 16.1655 28.7111 16.9996ZM17 30.9778C16.1655 30.9778 15.4889 31.6544 15.4889 32.4889C15.4889 33.3234 16.1655 34 17 34C17.8345 34 18.5111 33.3234 18.5111 32.4889C18.5111 31.6544 17.8345 30.9778 17 30.9778ZM0 17C0 17.8349 0.6766 18.5115 1.51187 18.5115C2.34562 18.5104 3.02222 17.8349 3.02222 17.0004C3.02336 16.1651 2.34562 15.4885 1.51149 15.4885C0.677356 15.4885 0.000755556 16.1651 0 17ZM34 16.9996C33.9996 7.61071 26.3889 0 17 0C16.1655 0 15.4889 0.6766 15.4889 1.51111C15.4889 2.34562 16.1655 3.02222 17 3.02222C17.0011 3.02222 17.0019 3.02184 17.003 3.02184C24.7203 3.02336 30.9763 9.28087 30.9763 16.9996H30.9778C30.9797 17.8349 31.6551 18.5104 32.4893 18.5104C33.3249 18.5107 34.0004 17.8349 34 16.9996C34 17 34 17 34 16.9996ZM8.5 2.27762C7.77731 2.69469 7.52987 3.61911 7.94693 4.34218C8.36438 5.06524 9.28842 5.31269 10.0115 4.89524C10.7338 4.47818 10.9816 3.55376 10.5646 2.83107C10.1475 2.10838 9.22269 1.86018 8.5 2.27762ZM23.9889 29.1051C23.2662 29.5222 23.0188 30.4466 23.4358 31.1697C23.8529 31.892 24.7773 32.1398 25.5 31.7224C26.2227 31.3053 26.4705 30.3809 26.0531 29.6586C25.636 28.9355 24.7116 28.6877 23.9889 29.1051ZM2.27724 25.5C2.69469 26.2231 3.61949 26.4709 4.34256 26.0534C5.06411 25.6352 5.31193 24.712 4.89524 23.9893C4.47818 23.2651 3.553 23.018 2.83069 23.4351C2.10838 23.8521 1.86093 24.7766 2.27724 25.5ZM2.27762 8.5C1.86056 9.22269 2.108 10.1471 2.83069 10.5646C3.55376 10.9816 4.47742 10.7342 4.89524 10.0115C5.31231 9.2888 5.06487 8.36476 4.34218 7.94731C3.61949 7.52987 2.69507 7.77731 2.27762 8.5ZM29.1051 23.9889C28.6881 24.7116 28.9359 25.6356 29.6586 26.0534C30.3813 26.4705 31.3053 26.2231 31.7228 25.5C32.1398 24.7777 31.8924 23.8533 31.1693 23.4362C30.447 23.0188 29.5222 23.2662 29.1051 23.9889ZM8.49962 31.7228C9.22307 32.1398 10.1475 31.8928 10.5649 31.1693C10.9812 30.4462 10.7338 29.523 10.0115 29.1051C9.28842 28.6869 8.364 28.9355 7.94656 29.6578C7.52987 30.3801 7.77731 31.3042 8.49962 31.7228Z" fill="#FCE9D7"/>
</svg>
