<svg width="30" height="37" viewBox="0 0 30 37" fill="none" xmlns="http://www.w3.org/2000/svg">
<path d="M5.14178 25.6099L10.8688 24.1299C11.0242 24.0905 11.1661 24.0108 11.2798 23.899L25.7188 9.66441C25.8873 9.49791 25.982 9.27221 25.982 9.03689C25.982 8.80157 25.8873 8.57587 25.7188 8.40937L21.4768 4.22393C21.308 4.05764 21.0793 3.96423 20.8408 3.96423C20.6023 3.96423 20.3735 4.05764 20.2048 4.22393L5.76578 18.4704C5.65253 18.5826 5.57175 18.7226 5.53178 18.8759L4.04378 24.5266C4.00417 24.6764 4.00497 24.8339 4.0461 24.9834C4.08723 25.1328 4.16726 25.2691 4.27825 25.3786C4.38924 25.4881 4.52733 25.5671 4.67881 25.6076C4.83029 25.6482 4.9899 25.649 5.14178 25.6099ZM18.3418 8.56329L21.3118 11.4937L20.0398 12.7487L17.0698 9.81833L18.3418 8.56329ZM15.7948 11.0763L18.7648 14.0067L10.7158 21.9573L7.74578 19.0269L15.7948 11.0763Z" fill="#977171"/>
</svg>
