<?xml version="1.0" encoding="UTF-8" standalone="no"?>
<svg
   xmlns:dc="http://purl.org/dc/elements/1.1/"
   xmlns:cc="http://creativecommons.org/ns#"
   xmlns:rdf="http://www.w3.org/1999/02/22-rdf-syntax-ns#"
   xmlns:svg="http://www.w3.org/2000/svg"
   xmlns="http://www.w3.org/2000/svg"
   xmlns:sodipodi="http://sodipodi.sourceforge.net/DTD/sodipodi-0.dtd"
   xmlns:inkscape="http://www.inkscape.org/namespaces/inkscape"
   xml:space="preserve"
   version="1.1"
   style="image-rendering:optimizeQuality;shape-rendering:geometricPrecision;text-rendering:geometricPrecision"
   viewBox="0 0 553 806"
   x="0px"
   y="0px"
   fill-rule="evenodd"
   clip-rule="evenodd"
   id="svg22"
   sodipodi:docname="locationWaypoint.svg"
   width="553"
   height="806"
   inkscape:version="1.0.2 (e86c8708, 2021-01-15)"><metadata
     id="metadata26"><rdf:RDF><cc:Work
         rdf:about=""><dc:format>image/svg+xml</dc:format><dc:type
           rdf:resource="http://purl.org/dc/dcmitype/StillImage" /><dc:title /></cc:Work></rdf:RDF></metadata><sodipodi:namedview
     pagecolor="#ffffff"
     bordercolor="#666666"
     borderopacity="1"
     objecttolerance="10"
     gridtolerance="10"
     guidetolerance="10"
     inkscape:pageopacity="0"
     inkscape:pageshadow="2"
     inkscape:window-width="1541"
     inkscape:window-height="912"
     id="namedview24"
     showgrid="false"
     fit-margin-top="0"
     fit-margin-left="0"
     fit-margin-right="0"
     fit-margin-bottom="0"
     inkscape:zoom="0.69421488"
     inkscape:cx="332.27523"
     inkscape:cy="246.62321"
     inkscape:window-x="136"
     inkscape:window-y="103"
     inkscape:window-maximized="0"
     inkscape:current-layer="g1322"
     inkscape:document-rotation="0"
     showguides="false" /><defs
     id="defs12"><style
       type="text/css"
       id="style10">
   
    .fil0 {fill:black}
   
  </style></defs><path
     id="rect17"
     style="fill:#ff7c7c;fill-opacity:1"
     d="M 276 0 C 124 0 0 124 0 277 C 0 425 195 675 276 806 C 358 675 553 425 553 277 C 553 124 429 0 276 0 z " /><g
     style="fill:none"
     id="g1322"
     transform="matrix(4.4819183,0,0,4.4819183,35.511119,88.63645)"><path
       style="color:#000000;font-style:normal;font-variant:normal;font-weight:normal;font-stretch:normal;font-size:medium;line-height:normal;font-family:sans-serif;font-variant-ligatures:normal;font-variant-position:normal;font-variant-caps:normal;font-variant-numeric:normal;font-variant-alternates:normal;font-variant-east-asian:normal;font-feature-settings:normal;font-variation-settings:normal;text-indent:0;text-align:start;text-decoration:none;text-decoration-line:none;text-decoration-style:solid;text-decoration-color:#000000;letter-spacing:normal;word-spacing:normal;text-transform:none;writing-mode:lr-tb;direction:ltr;text-orientation:mixed;dominant-baseline:auto;baseline-shift:baseline;text-anchor:start;white-space:normal;shape-padding:0;shape-margin:0;inline-size:0;clip-rule:evenodd;display:inline;overflow:visible;visibility:visible;opacity:1;isolation:auto;mix-blend-mode:normal;color-interpolation:sRGB;color-interpolation-filters:linearRGB;solid-color:#000000;solid-opacity:1;vector-effect:none;fill:#977171;fill-opacity:1;fill-rule:evenodd;stroke:none;stroke-width:1;stroke-linecap:butt;stroke-linejoin:miter;stroke-miterlimit:4;stroke-dasharray:none;stroke-dashoffset:0;stroke-opacity:1;color-rendering:auto;image-rendering:auto;shape-rendering:auto;text-rendering:auto;enable-background:accumulate;stop-color:#000000;stop-opacity:1"
       d="m 97.366999,51.241 c -1.002,0.018 -1.7914,0.8486 -1.7733,1.8544 0.024,1.3683 0.2744,9.9247 0.2744,11.75 0,1.0058 0.8079,1.836 1.8099,1.836 1.001,0 1.828,-0.8302 1.828,-1.836 0,-1.8782 -0.045,-3.2953 -0.165,-7.0688 -0.071,-2.2395 -0.104,-3.4081 -0.128,-4.7546 -0.017,-1.0059 -0.845,-1.799 -1.846,-1.781 z"
       id="path983" /><path
       style="color:#000000;font-style:normal;font-variant:normal;font-weight:normal;font-stretch:normal;font-size:medium;line-height:normal;font-family:sans-serif;font-variant-ligatures:normal;font-variant-position:normal;font-variant-caps:normal;font-variant-numeric:normal;font-variant-alternates:normal;font-variant-east-asian:normal;font-feature-settings:normal;font-variation-settings:normal;text-indent:0;text-align:start;text-decoration:none;text-decoration-line:none;text-decoration-style:solid;text-decoration-color:#000000;letter-spacing:normal;word-spacing:normal;text-transform:none;writing-mode:lr-tb;direction:ltr;text-orientation:mixed;dominant-baseline:auto;baseline-shift:baseline;text-anchor:start;white-space:normal;shape-padding:0;shape-margin:0;inline-size:0;clip-rule:evenodd;display:inline;overflow:visible;visibility:visible;opacity:1;isolation:auto;mix-blend-mode:normal;color-interpolation:sRGB;color-interpolation-filters:linearRGB;solid-color:#000000;solid-opacity:1;vector-effect:none;fill:#977171;fill-opacity:1;fill-rule:evenodd;stroke:none;stroke-width:1;stroke-linecap:butt;stroke-linejoin:miter;stroke-miterlimit:4;stroke-dasharray:none;stroke-dashoffset:0;stroke-opacity:1;color-rendering:auto;image-rendering:auto;shape-rendering:auto;text-rendering:auto;enable-background:accumulate;stop-color:#000000;stop-opacity:1"
       d="m 59.744399,41.5472 c -1.4549,0 -2.6325,1.1832 -2.6325,2.6438 v 0.5324 c 0,1.4606 1.1776,2.6438 2.6325,2.6438 h 4.7525 c 1.4549,0 2.6325,-1.1832 2.6325,-2.6438 V 44.191 c 0,-1.4606 -1.1776,-2.6438 -2.6325,-2.6438 z"
       id="path981" /><path
       style="color:#000000;font-style:normal;font-variant:normal;font-weight:normal;font-stretch:normal;font-size:medium;line-height:normal;font-family:sans-serif;font-variant-ligatures:normal;font-variant-position:normal;font-variant-caps:normal;font-variant-numeric:normal;font-variant-alternates:normal;font-variant-east-asian:normal;font-feature-settings:normal;font-variation-settings:normal;text-indent:0;text-align:start;text-decoration:none;text-decoration-line:none;text-decoration-style:solid;text-decoration-color:#000000;letter-spacing:normal;word-spacing:normal;text-transform:none;writing-mode:lr-tb;direction:ltr;text-orientation:mixed;dominant-baseline:auto;baseline-shift:baseline;text-anchor:start;white-space:normal;shape-padding:0;shape-margin:0;inline-size:0;clip-rule:evenodd;overflow:visible;visibility:visible;opacity:1;isolation:auto;mix-blend-mode:normal;color-interpolation:sRGB;color-interpolation-filters:linearRGB;solid-color:#000000;solid-opacity:1;vector-effect:none;fill:#ffffff;fill-opacity:1;fill-rule:evenodd;stroke:none;stroke-width:1;stroke-linecap:butt;stroke-linejoin:miter;stroke-miterlimit:4;stroke-dasharray:none;stroke-dashoffset:0;stroke-opacity:1;color-rendering:auto;image-rendering:auto;shape-rendering:auto;text-rendering:auto;enable-background:accumulate;stop-color:#000000;stop-opacity:1"
       d="m 54.551899,0 c -1.3104,0 -2.4985,0.802 -2.943,2.03786 l -0.1463,0.40391 c -1.3287,0.02285 -2.5161,0.83912 -2.925,2.11135 l -0.786,2.44178 c -0.3092,0.9607 -0.1013,1.9855 0.5301,2.7723 0.2594,0.3237 0.5958,0.559 0.9507,0.7527 l 1.5173,14.7058 c 0.1631,1.585 1.509,2.7356 3.0897,2.7356 h 9.7619 c 1.5824,0 2.9448,-1.1515 3.1081,-2.7356 l 1.4987,-14.7058 c 0.3598,-0.1945 0.6886,-0.4251 0.9507,-0.7527 0.6294,-0.7895 0.8383,-1.8146 0.5306,-2.7723 l -0.7863,-2.44178 c -0.4083,-1.26999 -1.5965,-2.0885 -2.925,-2.11135 l -0.1462,-0.40391 C 65.386099,0.79865 64.199099,0 62.888099,0 Z m -1.7,10.1344 h 11.7368 l -1.4443,14.1917 h -8.8482 z m -13.4732,18.396 c -1.0015,0.0104 -1.8019,0.8485 -1.7915,1.8543 0.0103,1.0058 0.8266,1.8096 1.8281,1.7993 7.2847,-0.0755 14.3164,-0.0599 22.8878,0.0551 3.3878,0.0453 16.407,0.2694 17.9525,0.2937 1.0015,0.0157 1.8311,-0.7935 1.8463,-1.7993 0.0158,-1.0056 -0.7898,-1.8202 -1.7913,-1.8359 -1.5444,-0.0241 -14.5776,-0.2482 -17.9706,-0.2938 -8.5983,-0.1152 -15.6447,-0.1491 -22.9613,-0.0734 z m 15.9044,4.8286 c -3.8987,-0.0554 -6.2274,-0.0593 -8.8295,0.0183 -7.7109,0.2299 -12.8841,1.1273 -15.5391,3.3231 -2.1595,1.786 -3.2769,4.6282 -3.7659,8.3718 -0.2251,1.7232 -0.2837,3.0211 -0.3291,5.7832 -0.0145,0.8854 -0.0312,1.3025 -0.0548,1.6707 -0.2062,3.2096 0.2057,12.4644 0.7678,16.5969 0.1171,0.8607 0.8542,1.3989 1.6819,1.4688 0.1669,0.0546 0.2907,0.1985 0.4753,0.2021 0.6361,0.0117 1.1477,0.0317 1.8647,0.0734 0.1469,0.0082 0.6895,0.03 0.8043,0.0364 0.7448,0.0441 1.4767,0.0517 2.1938,0.0735 0.7955,3.6765 4.0101,6.4443 7.8792,6.4443 3.8572,0 7.0711,-2.7484 7.8792,-6.4073 3.4653,0.0435 9.9611,0.1298 11.3347,0.1469 4.3986,0.0534 8.1777,0.0757 12.4125,0.0916 0.7892,3.6854 4.0038,6.4625 7.8794,6.4625 3.875,0 7.0902,-2.7777 7.8794,-6.4625 0.3475,-0.0235 1.1115,-0.0047 1.3162,-0.0734 0.0047,-0.0018 -0.1691,0.0382 -0.1462,0.037 0.1468,-0.0106 0.4083,-0.0124 0.8225,-0.0188 0.3943,-0.0059 0.7113,-0.2209 1.0056,-0.4406 0.0795,-0.0429 0.165,-0.0376 0.2375,-0.0917 0.0328,-0.0329 0.0427,-0.0752 0.0731,-0.1104 0.3025,-0.2615 0.5803,-0.5846 0.6582,-1.0094 2.3022,-12.5631 -0.8214,-27.206 -6.6544,-32.0372 -2.5471,-2.1099 -7.7402,-3.2109 -15.1919,-3.7453 -4.0154,-0.2881 -7.3365,-0.3542 -12.8519,-0.3672 -0.7727,-0.0018 -3.4912,-0.0323 -3.8025,-0.0367 z m -0.0362,3.6351 c 0.3106,0.0044 3.056,0.0348 3.8387,0.0367 5.4353,0.0129 8.6885,0.0869 12.5963,0.3672 6.659,0.4777 11.408,1.4812 13.1437,2.9192 0.4593,0.3802 0.8775,0.9318 1.2982,1.4871 h -11.5538 c -1.3736,0 -2.5225,1.104 -2.5225,2.4968 v 0.8262 c 0,1.3929 1.1489,2.4969 2.5225,2.4969 h 12.5956 c 0.602,0 1.1379,-0.2504 1.5725,-0.6059 0.8015,2.3242 1.3947,5.0049 1.755,7.8949 -1.5186,-1.3948 -3.3181,-2.376 -5.5025,-3.0847 -0.6815,-0.2211 -0.9933,-0.3259 -2.4312,-0.716 -0.144,-0.0391 -0.206,-0.0497 -0.2925,-0.0734 -1.617,-0.4428 -3.2035,-0.6945 -4.9181,-0.8078 -1.6064,-0.1064 -2.7542,-0.0928 -5.8682,0 -2.244,0.0667 -3.4486,0.085 -4.9543,0.055 -2.4945,-0.0496 -5.6248,-0.0413 -15.5756,0.0734 -0.8538,0.0099 -1.4806,0.0298 -2.1023,0.0368 -11.2987,0.1268 -16.9912,0.1126 -18.3726,-0.0735 0.0418,-2.077 0.0951,-3.4023 0.2742,-4.7734 0.3807,-2.9141 1.179,-4.9558 2.468,-6.0219 1.7833,-1.4749 6.4888,-2.3109 13.3452,-2.5152 2.5344,-0.0756 4.8348,-0.0731 8.6837,-0.0184 z m -44.0213,3.5617 c -0.8428,0.0651 -1.7054004,0.295 -2.5593004,0.6793 -2.91013,1.3097 -5.19479,4.2505 -5.37474,7.1785 -0.09693,1.5773 0.42097,3.0038 1.18831,4.3693 -2.77126,0.3454 -4.52638,2.2542 -4.47893,5.0678 0.06154,3.6519 3.22639,6.523 6.94686,5.1218 0.9378,-0.3531 1.412,-1.3895 1.0603,-2.3312 -0.3517,-0.9424 -1.4022,-1.4182 -2.33997,-1.0652 -1.09986,0.4142 -2.02451,-0.4365 -2.0475,-1.7995 -0.02282,-1.3524 0.95922,-1.9693 3.69277,-1.1009 0.2241,0.071 0.4151,0.1186 0.6033,0.1468 0.1834,0.0271 0.3591,0.0253 0.5667,0 0.4648,-0.057 0.9284,-0.2491 1.2797,-0.7161 0.3848004,-0.5117 0.4406004,-1.0881 0.3108004,-1.5974 -0.0588,-0.2303 -0.1484004,-0.4154 -0.2559004,-0.5875 -0.0973,-0.1557 -0.1904,-0.2838 -0.3291,-0.4407 -0.1016,-0.1145 -0.5332,-0.5828 -0.6215,-0.6791 -0.2709,-0.2965 -0.499,-0.5643 -0.713,-0.8447 -0.8611,-1.1282 -1.3107,-2.2235 -1.2431,-3.323 0.0916,-1.4906 1.4921,-3.2911 3.2357004,-4.0758 1.7592,-0.7917 3.2459,-0.3729 4.3144,1.5606 0.4861,0.8794 1.5922,1.204 2.468,0.7159 0.8757,-0.4881 1.1807,-1.599 0.6947,-2.4784 -1.5143,-2.7401 -3.8699,-3.9955 -6.3985,-3.8005 z m 48.5188,0.9914 c -1.4549,0 -2.6325,1.1832 -2.6325,2.6438 v 0.5324 c 0,1.4606 1.1776,2.6438 2.6325,2.6438 h 4.7525 c 1.4549,0 2.6325,-1.1832 2.6325,-2.6438 V 44.191 c 0,-1.4606 -1.1776,-2.6438 -2.6325,-2.6438 z m 37.6226,9.6938 c -1.002,0.018 -1.7914,0.8486 -1.7733,1.8544 0.024,1.3683 0.2744,9.9247 0.2744,11.75 0,1.0058 0.8079,1.836 1.8099,1.836 1.001,0 1.828,-0.8302 1.828,-1.836 0,-1.8782 -0.045,-3.2953 -0.165,-7.0688 -0.071,-2.2395 -0.104,-3.4081 -0.128,-4.7546 -0.017,-1.0059 -0.845,-1.799 -1.846,-1.781 z m -77.7869,1.3768 c -3.3423,0.057 -5.7014,2.7354 -5.722,6.3708 -0.02,3.5309 2.3476,6.3891 6.106,6.3891 1.0015,0 1.8098,-0.8119 1.8098,-1.8177 0,-1.0058 -0.8083,-1.836 -1.8098,-1.836 -1.5898,0 -2.4956,-1.0763 -2.4863,-2.7172 0.0132,-2.3223 1.5619,-3.4732 4.1316,-2.2213 0.9011,0.4389 1.9943,0.0605 2.4314,-0.8442 0.4371,-0.9054 0.0602,-2.0034 -0.8409,-2.4423 -1.2827,-0.6245 -2.5056,-0.9 -3.6198,-0.8812 z m 52.0105,1.2484 c 2.9929,-0.0893 4.071,-0.0957 5.5206,0 1.4813,0.0981 2.8326,0.3038 4.2044,0.6792 0.0901,0.0247 1.9575,0.5393 2.56,0.7344 3.3819,1.0974 5.4253,2.8593 6.965,6.6281 -0.0398,1.9388 -0.186,3.8769 -0.4756,5.7834 -0.0632,0.0135 -0.2316,-6e-4 -0.2925,0.0182 0.041,-0.0106 0.0872,-0.0311 0.1281,-0.037 0.0076,-0.0012 -0.0444,0.0147 -0.1281,0.0188 -0.045,0.0017 -0.2159,-0.0018 -0.2744,0 -0.816,-3.6478 -4.0113,-6.3897 -7.8606,-6.3897 -3.823,0 -6.9995,2.7055 -7.8425,6.3157 -4.2307,-0.0159 -7.9999,-0.0382 -12.395,-0.0917 -1.3794,-0.0164 -7.9613,-0.1034 -11.4074,-0.1469 -0.8287,-3.6307 -4.0238,-6.352 -7.8609,-6.352 -3.8228,0 -6.9993,2.7054 -7.8426,6.3156 -0.6524,-0.0206 -1.3254,-0.0335 -2.011,-0.0734 -0.1112,-0.0065 -0.6531,-0.0282 -0.8044,-0.037 -0.2811,-0.0165 -0.5049,-0.0253 -0.7495,-0.0365 -0.4233,-3.9368 -0.7068,-10.0985 -0.6216,-13.2922 2.0729,0.2221 6.9751,0.2574 18.4824,0.1287 0.6221,-0.007 15.1322,-0.1592 17.5681,-0.1104 1.5813,0.0317 2.8367,0.0135 5.1375,-0.0553 z m -29.1589,10.7953 c 2.4538,0 4.4424,2.031 4.4424,4.5532 0,2.5221 -1.9886,4.5719 -4.4424,4.5713 -2.4538,0 -4.4606,-2.0492 -4.4606,-4.5713 0,-2.5222 2.0068,-4.5532 4.4606,-4.5532 z m 39.5058,0.2938 c 2.4541,0 4.4606,2.031 4.4606,4.5531 0,2.5222 -2.0065,4.5531 -4.4606,4.5531 -2.4541,0 -4.4425,-2.0309 -4.4425,-4.5531 0,-2.5221 1.9884,-4.5531 4.4425,-4.5531 z"
       id="path964" /></g></svg>
