<svg width="33" height="29" viewBox="0 0 33 29" fill="none" xmlns="http://www.w3.org/2000/svg">
<path d="M11.7852 28.8319C11.1601 28.8318 10.5606 28.5367 10.1187 28.0115L0.689954 16.8116C0.247963 16.2862 -0.000220881 15.5737 1.47507e-07 14.831C0.000221176 14.0882 0.248829 13.376 0.691132 12.851C1.13344 12.326 1.7332 12.0312 2.35849 12.0314C2.98379 12.0317 3.58338 12.327 4.02537 12.8524L11.7852 22.0699L28.9738 1.65246C29.4161 1.12707 30.016 0.831909 30.6415 0.831909C31.267 0.831909 31.8669 1.12707 32.3092 1.65246C32.7515 2.17785 33 2.89044 33 3.63345C33 4.37647 32.7515 5.08905 32.3092 5.61444L13.4517 28.0143C13.0094 28.5384 12.41 28.8325 11.7852 28.8319Z" fill="white"/>
</svg>
