<?xml version="1.0" encoding="UTF-8" standalone="no"?> <!-- Created with Vectornator for iOS (http://vectornator.io/) --><!DOCTYPE svg PUBLIC "-//W3C//DTD SVG 1.1//EN" "http://www.w3.org/Graphics/SVG/1.1/DTD/svg11.dtd">
<svg style="fill-rule:evenodd;clip-rule:evenodd;stroke-linecap:round;stroke-linejoin:round;" xmlns:vectornator="http://vectornator.io" xmlns:xlink="http://www.w3.org/1999/xlink" xmlns="http://www.w3.org/2000/svg" xml:space="preserve" version="1.1" viewBox="0 0 200 160">
<metadata>
<vectornator:setting key="DimensionsVisible" value="1"/>
<vectornator:setting key="SnapToGrid" value="0"/>
<vectornator:setting key="SnapToPoints" value="0"/>
<vectornator:setting key="GuidesVisible" value="1"/>
<vectornator:setting key="RulersVisible" value="1"/>
<vectornator:setting key="SnapToEdges" value="0"/>
<vectornator:setting key="DisplayWhiteBackground" value="0"/>
<vectornator:setting key="SnapToGuides" value="1"/>
<vectornator:setting key="GridSpacing" value="36"/>
<vectornator:setting key="Units" value="Pixels"/>
<vectornator:setting key="DynamicGuides" value="1"/>
<vectornator:setting key="New" value="1"/>
</metadata>
<defs/>
<g id="Layer 1" vectornator:layerName="Layer 1" visibility="hidden">
<path stroke="#000000" stroke-width="6.2" d="M61.8551+127.862C65.5101+127.928+66.9943+128.213+72.4536+128.287" fill="none" stroke-linecap="round" opacity="1" stroke-linejoin="round"/>
<path stroke="#000000" stroke-width="6.2" d="M94.6757+128.222C111.801+128.425+122.211+128.628+139.71+128.68" fill="none" stroke-linecap="round" opacity="1" stroke-linejoin="round"/>
<path stroke="#000000" stroke-width="6.2" d="M161.997+128.812C168.281+128.807+163.896+128.624+167.966+128.56" fill="none" stroke-linecap="round" opacity="1" stroke-linejoin="round"/>
<path stroke="#000000" stroke-width="6.2" d="M61.2104+127.701C60.2385+120.586+59.5903+105.079+59.9138+100.065C60.2548+94.7801+59.1857+80.858+65.8809+75.3443C73.1083+69.3923+96.9913+70.2681+109.526+70.4001C117.625+70.4853+149.762+69.8886+158.031+76.7082C166.535+83.7224+172.237+106.986+168.316+128.297" fill="none" stroke-linecap="round" opacity="1" stroke-linejoin="round"/>
<path stroke="#000000" stroke-width="6.2" d="M177.566+100.783C177.691+107.766+178.046+114.585+178.046+120.855" fill="none" stroke-linecap="round" opacity="1" stroke-linejoin="round"/>
<path stroke="#000000" stroke-width="6.2" d="M78.4051+62.145C103.14+61.8901+124.304+62.3698+148.294+62.7442" fill="none" stroke-linecap="round" opacity="1" stroke-linejoin="round"/>
<path stroke="#000000" stroke-width="6.2" d="M61.5962+99.1071C65.8926+100.062+112.008+98.8995+124.709+99.1511C135.268+99.3603+142.249+97.9849+150.868+100.336C157.565+102.162+165.143+103.73+169.624+115.538" fill="none" stroke-linecap="round" opacity="1" stroke-linejoin="round"/>
<path stroke="#000000" stroke-width="6.2" d="M38.4887+87.4668C32.7016+77.0399+20.2547+85.3982+19.7811+93.07C19.3292+100.39+27.8424+105.026+24.5117+103.973C9.57174+99.2488+12.749+118.172+21.8375+114.764" fill="none" stroke-linecap="round" opacity="1" stroke-linejoin="round"/>
<path stroke="#000000" stroke-width="6.2" d="M49.3629+104.328C41.9548+100.735+37.8765+105.824+37.8476+110.902C37.8255+114.777+40.161+118.645+45.1736+118.645" fill="none" stroke-linecap="round" opacity="1" stroke-linejoin="round"/>
<path stroke="#000000" stroke-width="6.2" d="M140.425+128.778C140.425+122.782+145.221+117.921+151.137+117.921C157.053+117.921+161.849+122.782+161.849+128.778C161.849+134.774+157.053+139.634+151.137+139.634C145.221+139.634+140.425+134.774+140.425+128.778Z" fill="none" stroke-linecap="round" opacity="1" stroke-linejoin="round"/>
<path stroke="#000000" stroke-width="6.2" d="M72.8727+128.295C72.8727+122.299+77.6685+117.439+83.5845+117.439C89.5005+117.439+94.2964+122.299+94.2964+128.295C94.2964+134.291+89.5005+139.152+83.5845+139.152C77.6685+139.152+72.8727+134.291+72.8727+128.295Z" fill="none" stroke-linecap="round" opacity="1" stroke-linejoin="round"/>
<path stroke="#000000" stroke-width="11" d="M138.522+84.7327L160.078+84.7327C160.735+84.7327+161.267+85.2494+161.267+85.8867L161.267+87.2807C161.267+87.9181+160.735+88.4348+160.078+88.4348L138.522+88.4348C137.865+88.4348+137.333+87.9181+137.333+87.2807L137.333+85.8867C137.333+85.2494+137.865+84.7327+138.522+84.7327Z" fill="none" stroke-linecap="round" opacity="1" stroke-linejoin="round"/>
<path stroke="#000000" stroke-width="11" d="M113.19+84.3012L121.298+84.3012C122.072+84.3012+122.699+84.9287+122.699+85.7028L122.699+86.6018C122.699+87.3758+122.072+88.0033+121.298+88.0033L113.19+88.0033C112.416+88.0033+111.789+87.3758+111.789+86.6018L111.789+85.7028C111.789+84.9287+112.416+84.3012+113.19+84.3012Z" fill="none" stroke-linecap="round" opacity="1" stroke-linejoin="round"/>
<path stroke="#000000" stroke-width="6.2" d="M104.318+13.5699C103.354+13.5699+102.501+14.1386+102.195+14.9848L101.217+17.7095L99.1359+17.7095C98.1403+17.7095+97.2786+18.3024+96.9934+19.1864L95.6514+23.326C95.4476+23.9566+95.5728+24.625+96.0007+25.1559C96.4257+25.6841+97.0807+25.9887+97.7939+25.9887L98.0967+25.9887L100.883+53.09C100.993+54.16+101.951+54.9658+103.107+54.9658L119.775+54.9658C120.934+54.9658+121.889+54.16+121.999+53.09L124.785+25.9887L125.088+25.9887C125.801+25.9887+126.456+25.6841+126.881+25.1559C127.306+24.625+127.434+23.9566+127.231+23.326L125.889+19.1864C125.603+18.3024+124.742+17.7095+123.746+17.7095L121.665+17.7095L120.686+14.9848C120.381+14.1386+119.528+13.5699+118.564+13.5699L104.318+13.5699ZM104.318+14.9498L118.564+14.9498C118.885+14.9498+119.17+15.1384+119.272+15.4214L120.096+17.7095L102.786+17.7095L103.61+15.4214C103.712+15.1384+103.997+14.9498+104.318+14.9498ZM99.1359+19.0894L123.746+19.0894C124.078+19.0894+124.366+19.2861+124.459+19.5826L125.801+23.7222C125.868+23.9324+125.827+24.1534+125.685+24.3312C125.545+24.5091+125.327+24.6088+125.088+24.6088L97.7939+24.6088C97.5552+24.6088+97.3369+24.5091+97.1971+24.3312C97.0545+24.1534+97.0108+23.9324+97.0807+23.7222L98.4227+19.5826C98.5158+19.2861+98.804+19.0894+99.1359+19.0894Z" fill="none" stroke-linecap="round" opacity="1" stroke-linejoin="round"/>
</g>
<g id="Layer 1 copy" vectornator:layerName="Layer 1 copy">
<path d="M104.312+10.4688C102.072+10.4688+100.041+11.8339+99.2812+13.9375L99.0312+14.625C96.7598+14.6639+94.7301+16.0533+94.0312+18.2188L92.6875+22.375C92.1591+24.0103+92.5144+25.7546+93.5938+27.0938C94.0371+27.6448+94.6122+28.0453+95.2188+28.375L97.8125+53.4062C98.0914+56.104+100.392+58.0625+103.094+58.0625L119.781+58.0625C122.486+58.0625+124.815+56.1025+125.094+53.4062L127.656+28.375C128.271+28.044+128.833+27.6514+129.281+27.0938C130.357+25.75+130.714+24.0051+130.188+22.375L128.844+18.2188C128.146+16.0571+126.115+14.6639+123.844+14.625L123.594+13.9375C122.832+11.8282+120.803+10.4688+118.562+10.4688C118.117+10.4688+104.758+10.4688+104.312+10.4688ZM101.406+27.7188L121.469+27.7188L119+51.875L103.875+51.875L101.406+27.7188ZM78.375+59.0312C76.663+59.0489+75.2948+60.4755+75.3125+62.1875C75.3301+63.8995+76.7255+65.2676+78.4375+65.25C90.8899+65.1216+102.91+65.1482+117.562+65.3438C123.353+65.421+145.608+65.8025+148.25+65.8438C149.962+65.8705+151.38+64.4931+151.406+62.7812C151.433+61.0694+150.056+59.683+148.344+59.6562C145.704+59.6151+123.425+59.2337+117.625+59.1562C102.927+58.9601+90.882+58.9023+78.375+59.0312ZM105.562+67.25C98.8975+67.1557+94.9168+67.1492+90.4688+67.2812C77.2877+67.6725+68.4446+69.2+63.9062+72.9375C60.2148+75.9775+58.3047+80.8154+57.4688+87.1875C57.084+90.1206+56.9838+92.3298+56.9062+97.0312C56.8814+98.5383+56.8529+99.2482+56.8125+99.875C56.46+105.338+57.1642+121.091+58.125+128.125C58.3252+129.59+59.5852+130.506+61+130.625C61.2853+130.718+61.4969+130.963+61.8125+130.969C62.8998+130.989+63.7744+131.023+65+131.094C65.2511+131.108+66.1786+131.145+66.375+131.156C67.648+131.231+68.8992+131.244+70.125+131.281C71.4849+137.539+76.9798+142.25+83.5938+142.25C90.1872+142.25+95.6811+137.572+97.0625+131.344C102.986+131.418+114.09+131.565+116.438+131.594C123.957+131.685+130.417+131.723+137.656+131.75C139.005+138.023+144.5+142.75+151.125+142.75C157.749+142.75+163.245+138.022+164.594+131.75C165.188+131.71+166.494+131.742+166.844+131.625C166.852+131.622+166.555+131.69+166.594+131.688C166.845+131.67+167.292+131.667+168+131.656C168.674+131.646+169.216+131.28+169.719+130.906C169.855+130.833+170.001+130.842+170.125+130.75C170.181+130.694+170.198+130.622+170.25+130.562C170.767+130.117+171.242+129.567+171.375+128.844C175.31+107.46+169.971+82.5359+160+74.3125C155.646+70.7213+146.769+68.8472+134.031+67.9375C127.167+67.4472+121.49+67.3347+112.062+67.3125C110.741+67.3094+106.094+67.2576+105.562+67.25ZM105.5+73.4375C106.031+73.445+110.724+73.4968+112.062+73.5C121.353+73.5219+126.914+73.6479+133.594+74.125C144.977+74.938+153.095+76.6461+156.062+79.0938C156.847+79.741+157.562+80.6799+158.281+81.625L138.531+81.625C136.183+81.625+134.219+83.5042+134.219+85.875L134.219+87.2812C134.219+89.6521+136.183+91.5313+138.531+91.5312L160.062+91.5312C161.091+91.5312+162.007+91.105+162.75+90.5C164.12+94.456+165.134+99.019+165.75+103.938C163.154+101.564+160.078+99.8938+156.344+98.6875C155.179+98.3112+154.646+98.1328+152.188+97.4688C151.942+97.4022+151.836+97.3842+151.688+97.3438C148.924+96.5901+146.212+96.1618+143.281+95.9688C140.535+95.7878+138.573+95.8109+133.25+95.9688C129.414+96.0825+127.355+96.1135+124.781+96.0625C120.517+95.978+115.166+95.9922+98.1562+96.1875C96.6966+96.2043+95.6251+96.2381+94.5625+96.25C75.2484+96.4659+65.5176+96.4418+63.1562+96.125C63.2278+92.5897+63.3188+90.3339+63.625+88C64.2757+83.0399+65.6404+79.5646+67.8438+77.75C70.8922+75.2395+78.9358+73.8166+90.6562+73.4688C94.9885+73.3402+98.9207+73.3444+105.5+73.4375ZM30.25+79.5C28.8092+79.6107+27.3348+80.0021+25.875+80.6562C20.9005+82.8855+16.9951+87.8911+16.6875+92.875C16.5218+95.5597+17.4071+97.9878+18.7188+100.312C13.9816+100.9+10.9814+104.149+11.0625+108.938C11.1677+115.154+16.5777+120.041+22.9375+117.656C24.5406+117.055+25.3511+115.291+24.75+113.688C24.1488+112.084+22.3531+111.274+20.75+111.875C18.8699+112.58+17.2893+111.132+17.25+108.812C17.211+106.51+18.8897+105.46+23.5625+106.938C23.9455+107.059+24.272+107.14+24.5938+107.188C24.9072+107.234+25.2075+107.231+25.5625+107.188C26.3569+107.091+27.1494+106.764+27.75+105.969C28.4078+105.098+28.5032+104.117+28.2812+103.25C28.1808+102.858+28.0276+102.543+27.8438+102.25C27.6774+101.985+27.5183+101.767+27.2812+101.5C27.1076+101.305+26.3698+100.508+26.2188+100.344C25.7558+99.8394+25.3659+99.3836+25+98.9062C23.5281+96.986+22.7595+95.1215+22.875+93.25C23.0316+90.7129+25.4257+87.6482+28.4062+86.3125C31.4133+84.9649+33.9547+85.6778+35.7812+88.9688C36.6121+90.4657+38.503+91.0183+40+90.1875C41.497+89.3567+42.0183+87.4657+41.1875+85.9688C38.599+81.3049+34.5723+79.168+30.25+79.5ZM113.188+81.1875C110.701+81.1875+108.688+83.2014+108.688+85.6875L108.688+86.5938C108.688+89.0799+110.701+91.0938+113.188+91.0938L121.312+91.0938C123.799+91.0938+125.812+89.0799+125.812+86.5938L125.812+85.6875C125.812+83.2014+123.799+81.1875+121.312+81.1875L113.188+81.1875ZM177.5+97.6875C175.788+97.7182+174.438+99.1319+174.469+100.844C174.51+103.173+174.938+117.737+174.938+120.844C174.938+122.556+176.319+123.969+178.031+123.969C179.743+123.969+181.156+122.556+181.156+120.844C181.156+117.647+181.079+115.235+180.875+108.812C180.754+105+180.697+103.011+180.656+100.719C180.626+99.0069+179.212+97.6568+177.5+97.6875ZM44.5312+100.031C38.8179+100.128+34.7852+104.687+34.75+110.875C34.7158+116.885+38.763+121.75+45.1875+121.75C46.8996+121.75+48.2812+120.368+48.2812+118.656C48.2812+116.944+46.8996+115.531+45.1875+115.531C42.47+115.531+40.9216+113.699+40.9375+110.906C40.96+106.953+43.6074+104.994+48+107.125C49.5404+107.872+51.4091+107.228+52.1562+105.688C52.9034+104.147+52.2592+102.278+50.7188+101.531C48.5262+100.468+46.4357+99.9991+44.5312+100.031ZM133.438+102.156C138.554+102.004+140.397+101.993+142.875+102.156C145.407+102.323+147.717+102.673+150.062+103.312C150.216+103.354+153.408+104.23+154.438+104.562C160.219+106.43+163.712+109.429+166.344+115.844C166.276+119.144+166.026+122.443+165.531+125.688C165.423+125.711+165.135+125.687+165.031+125.719C165.101+125.701+165.18+125.666+165.25+125.656C165.263+125.654+165.174+125.681+165.031+125.688C164.954+125.691+164.662+125.685+164.562+125.688C163.167+119.479+157.705+114.812+151.125+114.812C144.59+114.812+139.16+119.417+137.719+125.562C130.487+125.535+124.044+125.497+116.531+125.406C114.173+125.378+102.922+125.23+97.0312+125.156C95.6145+118.976+90.1529+114.344+83.5938+114.344C77.0591+114.344+71.6291+118.949+70.1875+125.094C69.0724+125.059+67.922+125.037+66.75+124.969C66.5598+124.958+65.6335+124.921+65.375+124.906C64.8944+124.878+64.5119+124.863+64.0938+124.844C63.3702+118.143+62.8855+107.655+63.0312+102.219C66.5745+102.597+74.9544+102.657+94.625+102.438C95.6884+102.426+120.492+102.167+124.656+102.25C127.359+102.304+129.505+102.273+133.438+102.156ZM83.5938+120.531C87.7883+120.531+91.1875+123.988+91.1875+128.281C91.1875+132.574+87.7883+136.063+83.5938+136.062C79.3992+136.062+75.9687+132.574+75.9688+128.281C75.9688+123.988+79.3992+120.531+83.5938+120.531ZM151.125+121.031C155.32+121.031+158.75+124.488+158.75+128.781C158.75+133.074+155.32+136.531+151.125+136.531C146.93+136.531+143.531+133.074+143.531+128.781C143.531+124.488+146.93+121.031+151.125+121.031Z" opacity="1" fill="#000000"/>
</g>
<g id="Layer 2" vectornator:layerName="Layer 2" visibility="hidden">
<path d="M61.4023+76.2954C56.2799+89.5696+56.0015+112.002+57.5298+125.757C58.1373+131.224+68.3385+134.199+70.9074+130.774C74.3897+126.131+63.7491+122.955+62.8985+118.276C60.9487+107.552+62.442+89.6177+67.387+79.7278C70.9126+72.6765+78.051+77.0512+83.9329+74.9752C93.5302+71.588+105.227+73.9734+115.177+74.4472C127.15+75.0173+139.392+74.3789+151.437+75.2393C158.051+75.7117+161.107+82.355+162.966+87.5607C166.11+96.3646+167.779+106.878+166.927+116.252C166.613+119.706+165.139+124.193+165.518+127.605C165.881+130.873+168.531+133.233+170.799+129.454C175.19+122.135+172.757+112.528+171.415+104.811C170.087+97.1772+168.736+84.4233+163.67+78.2316C153.063+65.2678+113.535+63.636+97.3105+65.2061C92.004+65.7196+64.5034+68.259+61.4023+76.2954Z" opacity="1" fill="#000000"/>
</g>
</svg>
